<svg width="200" height="56" viewBox="0 0 200 56" fill="none" xmlns="http://www.w3.org/2000/svg">
<path fill-rule="evenodd" clip-rule="evenodd" d="M24.4471 15.3594L24.4353 56.0015L28.7746 55.9894L28.7625 41.8029L36.4281 41.7908L36.416 55.9894H40.9578V0.857422L36.4039 3.87698L36.3983 37.5041L28.8102 37.479L28.8162 7.87174L0 24.5405L0.0387793 47.3892L4.59272 47.4016L4.59861 27.0685L24.4471 15.3594Z" fill="white"/>
<path fill-rule="evenodd" clip-rule="evenodd" d="M16.567 55.7993V24.9245L12.0856 27.551L12.1802 51.6064L0.0686887 51.5113L0.00882306 55.7751L16.567 55.7993Z" fill="white"/>
<path d="M72.3921 32.9389V18.0064H76.0586V32.9389C76.0586 34.3554 75.7555 35.562 75.1493 36.5584C74.5431 37.5549 73.717 38.3169 72.6708 38.8445C71.6246 39.372 70.4367 39.6358 69.107 39.6358C67.7479 39.6358 66.5405 39.4062 65.4845 38.947C64.4383 38.4879 63.6171 37.7845 63.0206 36.8369C62.4242 35.8892 62.126 34.6876 62.126 33.232H65.8218C65.8218 34.0721 65.9538 34.7511 66.2178 35.2689C66.4916 35.7769 66.8729 36.1481 67.3617 36.3826C67.8604 36.6073 68.4421 36.7196 69.107 36.7196C69.7425 36.7196 70.3047 36.578 70.7936 36.2947C71.2922 36.0016 71.6833 35.5766 71.9668 35.0198C72.2504 34.4531 72.3921 33.7595 72.3921 32.9389Z" fill="white"/>
<path d="M89.4926 35.6059V23.487H93.0417V39.3427H89.6979L89.4926 35.6059ZM89.9912 32.3088L91.1791 32.2795C91.1791 33.3443 91.0618 34.3261 90.8272 35.2249C90.5925 36.1139 90.2307 36.8906 89.7419 37.5549C89.253 38.2095 88.6273 38.7223 87.8646 39.0936C87.102 39.4551 86.1878 39.6358 85.1221 39.6358C84.3497 39.6358 83.6409 39.5234 82.9956 39.2987C82.3503 39.074 81.793 38.7272 81.3237 38.2583C80.8641 37.7894 80.5073 37.1788 80.2531 36.4265C79.9988 35.6743 79.8717 34.7755 79.8717 33.7302V23.487H83.4062V33.7595C83.4062 34.3359 83.4747 34.8195 83.6115 35.2103C83.7484 35.5913 83.9342 35.899 84.1688 36.1335C84.4035 36.3679 84.6773 36.534 84.9901 36.6317C85.303 36.7294 85.6354 36.7782 85.9874 36.7782C86.9945 36.7782 87.7864 36.5829 88.3633 36.1921C88.9499 35.7915 89.3655 35.2542 89.6099 34.5801C89.8641 33.9061 89.9912 33.1489 89.9912 32.3088Z" fill="white"/>
<path d="M105.566 35.0491C105.566 34.6974 105.478 34.3799 105.302 34.0966C105.126 33.8035 104.789 33.5397 104.29 33.3052C103.802 33.0708 103.078 32.8558 102.12 32.6605C101.279 32.4748 100.507 32.255 99.8027 32.001C99.1085 31.7373 98.5121 31.4198 98.0134 31.0485C97.5148 30.6773 97.1286 30.2377 96.8548 29.7297C96.5811 29.2216 96.4442 28.6355 96.4442 27.9712C96.4442 27.3264 96.586 26.7158 96.8695 26.1394C97.153 25.563 97.5588 25.055 98.0868 24.6154C98.6147 24.1758 99.2551 23.829 100.008 23.575C100.771 23.3209 101.621 23.1939 102.56 23.1939C103.89 23.1939 105.029 23.4186 105.977 23.868C106.935 24.3077 107.668 24.9085 108.177 25.6705C108.685 26.4227 108.94 27.2727 108.94 28.2203H105.405C105.405 27.8002 105.297 27.4094 105.082 27.048C104.877 26.6767 104.564 26.3788 104.144 26.1541C103.723 25.9196 103.195 25.8024 102.56 25.8024C101.954 25.8024 101.45 25.9001 101.049 26.0954C100.658 26.2811 100.365 26.5253 100.169 26.8281C99.9836 27.131 99.8907 27.4632 99.8907 27.8246C99.8907 28.0884 99.9396 28.3277 100.037 28.5427C100.145 28.7478 100.321 28.9383 100.565 29.1142C100.81 29.2803 101.142 29.4366 101.563 29.5831C101.993 29.7297 102.531 29.8713 103.176 30.0081C104.388 30.2621 105.429 30.5894 106.3 30.9899C107.18 31.3807 107.854 31.8887 108.324 32.5139C108.793 33.1294 109.028 33.9109 109.028 34.8586C109.028 35.562 108.876 36.2067 108.573 36.7929C108.28 37.3693 107.849 37.8724 107.282 38.3023C106.715 38.7223 106.036 39.0496 105.244 39.2841C104.462 39.5186 103.582 39.6358 102.604 39.6358C101.167 39.6358 99.9493 39.3818 98.9521 38.8738C97.9548 38.356 97.197 37.6966 96.6788 36.8955C96.1704 36.0846 95.9162 35.2445 95.9162 34.375H99.3334C99.3725 35.0295 99.5534 35.5522 99.876 35.943C100.208 36.324 100.619 36.6024 101.108 36.7782C101.607 36.9443 102.12 37.0274 102.648 37.0274C103.283 37.0274 103.816 36.9443 104.246 36.7782C104.677 36.6024 105.004 36.3679 105.229 36.0749C105.454 35.772 105.566 35.4301 105.566 35.0491Z" fill="white"/>
<path d="M119.396 23.487V26.0661H110.45V23.487H119.396ZM113.031 19.6037H116.566V34.9611C116.566 35.4496 116.634 35.8257 116.771 36.0895C116.918 36.3435 117.118 36.5145 117.372 36.6024C117.627 36.6903 117.925 36.7343 118.267 36.7343C118.511 36.7343 118.746 36.7196 118.971 36.6903C119.196 36.661 119.377 36.6317 119.514 36.6024L119.528 39.2987C119.235 39.3867 118.893 39.4648 118.502 39.5332C118.12 39.6016 117.68 39.6358 117.182 39.6358C116.37 39.6358 115.652 39.4941 115.026 39.2108C114.4 38.9177 113.911 38.4439 113.559 37.7894C113.207 37.1348 113.031 36.2654 113.031 35.181V19.6037Z" fill="white"/>
<path d="M136.585 26.9161V29.8322H125.248V26.9161H136.585ZM126.157 18.0064V39.3427H122.476V18.0064H126.157ZM139.415 18.0064V39.3427H135.749V18.0064H139.415Z" fill="white"/>
<path d="M142.774 31.5907V31.2537C142.774 30.1107 142.94 29.0507 143.272 28.0737C143.605 27.087 144.084 26.2322 144.71 25.5093C145.345 24.7766 146.118 24.21 147.027 23.8094C147.946 23.3991 148.982 23.1939 150.136 23.1939C151.299 23.1939 152.336 23.3991 153.245 23.8094C154.164 24.21 154.942 24.7766 155.577 25.5093C156.213 26.2322 156.697 27.087 157.029 28.0737C157.361 29.0507 157.528 30.1107 157.528 31.2537V31.5907C157.528 32.7337 157.361 33.7937 157.029 34.7706C156.697 35.7476 156.213 36.6024 155.577 37.3351C154.942 38.058 154.169 38.6247 153.26 39.035C152.351 39.4355 151.319 39.6358 150.165 39.6358C149.002 39.6358 147.961 39.4355 147.041 39.035C146.132 38.6247 145.36 38.058 144.724 37.3351C144.089 36.6024 143.605 35.7476 143.272 34.7706C142.94 33.7937 142.774 32.7337 142.774 31.5907ZM146.308 31.2537V31.5907C146.308 32.3039 146.382 32.978 146.528 33.613C146.675 34.248 146.905 34.8048 147.217 35.2835C147.53 35.7622 147.931 36.1384 148.42 36.4119C148.909 36.6854 149.491 36.8222 150.165 36.8222C150.82 36.8222 151.387 36.6854 151.867 36.4119C152.355 36.1384 152.756 35.7622 153.069 35.2835C153.382 34.8048 153.612 34.248 153.758 33.613C153.915 32.978 153.993 32.3039 153.993 31.5907V31.2537C153.993 30.5503 153.915 29.886 153.758 29.2607C153.612 28.6257 153.377 28.064 153.055 27.5755C152.742 27.087 152.341 26.706 151.852 26.4325C151.373 26.1492 150.801 26.0075 150.136 26.0075C149.471 26.0075 148.894 26.1492 148.405 26.4325C147.926 26.706 147.53 27.087 147.217 27.5755C146.905 28.064 146.675 28.6257 146.528 29.2607C146.382 29.886 146.308 30.5503 146.308 31.2537Z" fill="white"/>
<path d="M164.025 26.7109V39.3427H160.49V23.487H163.819L164.025 26.7109ZM163.453 30.8287L162.25 30.8141C162.25 29.7199 162.387 28.7088 162.661 27.7807C162.934 26.8526 163.335 26.0466 163.863 25.3627C164.391 24.6691 165.046 24.1367 165.828 23.7655C166.62 23.3845 167.535 23.1939 168.571 23.1939C169.295 23.1939 169.954 23.3014 170.551 23.5163C171.157 23.7215 171.68 24.0488 172.12 24.4982C172.57 24.9475 172.912 25.5239 173.147 26.2273C173.391 26.9307 173.513 27.7807 173.513 28.7771V39.3427H169.979V29.0849C169.979 28.3131 169.862 27.7074 169.627 27.2678C169.402 26.8281 169.075 26.5155 168.644 26.3299C168.224 26.1345 167.72 26.0368 167.134 26.0368C166.469 26.0368 165.902 26.1638 165.433 26.4178C164.973 26.6718 164.597 27.0187 164.303 27.4583C164.01 27.8979 163.795 28.4059 163.658 28.9823C163.521 29.5587 163.453 30.1742 163.453 30.8287ZM173.293 29.8908L171.636 30.2572C171.636 29.2998 171.768 28.3961 172.032 27.5462C172.306 26.6865 172.702 25.9343 173.22 25.2895C173.748 24.6349 174.398 24.122 175.171 23.7508C175.943 23.3796 176.828 23.1939 177.825 23.1939C178.637 23.1939 179.36 23.3063 179.996 23.531C180.641 23.7459 181.189 24.0878 181.638 24.5568C182.088 25.0257 182.43 25.6363 182.665 26.3885C182.9 27.131 183.017 28.0298 183.017 29.0849V39.3427H179.468V29.0702C179.468 28.2691 179.35 27.6488 179.116 27.2092C178.891 26.7695 178.568 26.4667 178.148 26.3006C177.727 26.1248 177.224 26.0368 176.637 26.0368C176.09 26.0368 175.606 26.1394 175.185 26.3446C174.775 26.54 174.428 26.8184 174.144 27.1798C173.861 27.5315 173.645 27.937 173.499 28.3961C173.362 28.8553 173.293 29.3535 173.293 29.8908Z" fill="white"/>
<path d="M193.65 39.6358C192.476 39.6358 191.416 39.4453 190.467 39.0643C189.529 38.6735 188.727 38.1313 188.062 37.4377C187.407 36.7441 186.903 35.9283 186.551 34.9905C186.199 34.0526 186.023 33.0415 186.023 31.9571V31.3709C186.023 30.1302 186.204 29.0067 186.566 28.0005C186.928 26.9942 187.431 26.1345 188.077 25.4214C188.722 24.6984 189.485 24.1465 190.365 23.7655C191.244 23.3845 192.198 23.1939 193.224 23.1939C194.359 23.1939 195.351 23.3845 196.202 23.7655C197.052 24.1465 197.756 24.6838 198.313 25.3774C198.88 26.0613 199.301 26.877 199.575 27.8246C199.858 28.7723 200 29.8176 200 30.9606V32.47H187.739V29.9348H196.51V29.6564C196.49 29.0214 196.363 28.4254 196.128 27.8686C195.903 27.3117 195.556 26.8623 195.087 26.5204C194.618 26.1785 193.992 26.0075 193.21 26.0075C192.623 26.0075 192.1 26.1345 191.64 26.3885C191.191 26.6328 190.814 26.9893 190.511 27.4583C190.208 27.9272 189.973 28.4938 189.807 29.1581C189.651 29.8127 189.573 30.5503 189.573 31.3709V31.9571C189.573 32.6507 189.665 33.2955 189.851 33.8914C190.047 34.4776 190.33 34.9905 190.702 35.4301C191.073 35.8697 191.523 36.2165 192.051 36.4705C192.579 36.7147 193.18 36.8369 193.855 36.8369C194.706 36.8369 195.463 36.6659 196.128 36.324C196.793 35.982 197.37 35.4985 197.859 34.8732L199.721 36.6757C199.379 37.1739 198.934 37.6526 198.387 38.1118C197.839 38.5612 197.169 38.9275 196.378 39.2108C195.595 39.4941 194.686 39.6358 193.65 39.6358Z" fill="white"/>
</svg>
