<svg width="148" height="41" viewBox="0 0 148 41" fill="none" xmlns="http://www.w3.org/2000/svg">
<path fill-rule="evenodd" clip-rule="evenodd" d="M17.9066 10.6308L17.8979 40.4236L21.0763 40.4147L21.0674 30.0153L26.6821 30.0065L26.6733 40.4147H30V9.53674e-05L26.6644 2.21359L26.6603 26.864L21.1024 26.8456L21.1067 5.14196L0 17.3611L0.0284044 34.1103L3.36399 34.1194L3.3683 19.2142L17.9066 10.6308Z" fill="white"/>
<path fill-rule="evenodd" clip-rule="evenodd" d="M12.1346 40.2754V17.6426L8.85214 19.5679L8.92144 37.2018L0.0501969 37.132L0.00634766 40.2577L12.1346 40.2754Z" fill="white"/>
<path d="M53.0244 23.5173V12.571H55.71V23.5173C55.71 24.5557 55.488 25.4402 55.0439 26.1707C54.5999 26.9011 53.9948 27.4597 53.2285 27.8464C52.4622 28.2332 51.5921 28.4265 50.6182 28.4265C49.6227 28.4265 48.7383 28.2582 47.9648 27.9216C47.1986 27.585 46.597 27.0694 46.1602 26.3748C45.7233 25.6801 45.5049 24.7992 45.5049 23.7322H48.2119C48.2119 24.3481 48.3086 24.8458 48.502 25.2253C48.7025 25.5977 48.9818 25.8699 49.3398 26.0417C49.7051 26.2065 50.1312 26.2888 50.6182 26.2888C51.0837 26.2888 51.4954 26.185 51.8535 25.9773C52.2188 25.7625 52.5052 25.4509 52.7129 25.0427C52.9206 24.6274 53.0244 24.1189 53.0244 23.5173ZM65.5498 25.4724V16.5886H68.1494V28.2117H65.7002L65.5498 25.4724ZM65.915 23.0554L66.7852 23.0339C66.7852 23.8145 66.6992 24.5343 66.5273 25.1931C66.3555 25.8448 66.0905 26.4141 65.7324 26.9011C65.3743 27.3809 64.916 27.7569 64.3574 28.0291C63.7988 28.294 63.1292 28.4265 62.3486 28.4265C61.7829 28.4265 61.2637 28.3442 60.791 28.1794C60.3184 28.0147 59.9102 27.7605 59.5664 27.4167C59.2298 27.073 58.9684 26.6254 58.7822 26.074C58.596 25.5225 58.5029 24.8637 58.5029 24.0974V16.5886H61.0918V24.1189C61.0918 24.5414 61.1419 24.8959 61.2422 25.1824C61.3424 25.4617 61.4785 25.6873 61.6504 25.8591C61.8223 26.031 62.0228 26.1528 62.252 26.2244C62.4811 26.296 62.7246 26.3318 62.9824 26.3318C63.7201 26.3318 64.3001 26.1886 64.7227 25.9021C65.1523 25.6085 65.4567 25.2146 65.6357 24.7205C65.8219 24.2263 65.915 23.6713 65.915 23.0554ZM77.3232 25.0642C77.3232 24.8064 77.2588 24.5736 77.1299 24.366C77.001 24.1511 76.7539 23.9578 76.3887 23.7859C76.0306 23.614 75.5007 23.4565 74.7988 23.3132C74.1829 23.1772 73.6172 23.016 73.1016 22.8298C72.5931 22.6365 72.1562 22.4037 71.791 22.1316C71.4258 21.8595 71.1429 21.5372 70.9424 21.1648C70.7419 20.7924 70.6416 20.3627 70.6416 19.8757C70.6416 19.4031 70.7454 18.9555 70.9531 18.533C71.1608 18.1104 71.458 17.738 71.8447 17.4158C72.2314 17.0935 72.7005 16.8393 73.252 16.6531C73.8105 16.4669 74.4336 16.3738 75.1211 16.3738C76.0951 16.3738 76.9294 16.5385 77.624 16.8679C78.3258 17.1902 78.863 17.6306 79.2354 18.1892C79.6077 18.7406 79.7939 19.3637 79.7939 20.0583H77.2051C77.2051 19.7504 77.1263 19.4639 76.9688 19.199C76.8184 18.9268 76.5892 18.7084 76.2812 18.5437C75.9733 18.3718 75.5866 18.2859 75.1211 18.2859C74.6771 18.2859 74.3083 18.3575 74.0146 18.5007C73.7282 18.6368 73.5133 18.8158 73.3701 19.0378C73.234 19.2598 73.166 19.5033 73.166 19.7683C73.166 19.9617 73.2018 20.1371 73.2734 20.2947C73.3522 20.4451 73.4811 20.5847 73.6602 20.7136C73.8392 20.8354 74.0827 20.95 74.3906 21.0574C74.7057 21.1648 75.0996 21.2686 75.5723 21.3689C76.4603 21.5551 77.223 21.795 77.8604 22.0886C78.5049 22.3751 78.999 22.7475 79.3428 23.2058C79.6865 23.657 79.8584 24.2299 79.8584 24.9246C79.8584 25.4402 79.7474 25.9128 79.5254 26.3425C79.3105 26.7651 78.9954 27.1339 78.5801 27.449C78.1647 27.7569 77.667 27.9968 77.0869 28.1687C76.514 28.3406 75.8695 28.4265 75.1533 28.4265C74.1006 28.4265 73.209 28.2403 72.4785 27.8679C71.748 27.4884 71.193 27.005 70.8135 26.4177C70.4411 25.8233 70.2549 25.2074 70.2549 24.5701H72.7578C72.7865 25.0499 72.9189 25.433 73.1553 25.7195C73.3988 25.9988 73.6995 26.2029 74.0576 26.3318C74.4229 26.4535 74.7988 26.5144 75.1855 26.5144C75.651 26.5144 76.0413 26.4535 76.3564 26.3318C76.6715 26.2029 76.9115 26.031 77.0762 25.8162C77.2409 25.5942 77.3232 25.3435 77.3232 25.0642ZM87.4531 16.5886V18.4792H80.9004V16.5886H87.4531ZM82.791 13.7419H85.3799V24.9998C85.3799 25.3578 85.43 25.6335 85.5303 25.8269C85.6377 26.0131 85.7845 26.1384 85.9707 26.2029C86.1569 26.2673 86.3753 26.2996 86.626 26.2996C86.805 26.2996 86.9769 26.2888 87.1416 26.2673C87.3063 26.2458 87.4388 26.2244 87.5391 26.2029L87.5498 28.1794C87.335 28.2439 87.0843 28.3012 86.7979 28.3513C86.5186 28.4014 86.1963 28.4265 85.8311 28.4265C85.2367 28.4265 84.7103 28.3227 84.252 28.115C83.7936 27.9001 83.4355 27.5528 83.1777 27.073C82.9199 26.5932 82.791 25.9558 82.791 25.1609V13.7419ZM100.043 19.1023V21.24H91.7393V19.1023H100.043ZM92.4053 12.571V28.2117H89.709V12.571H92.4053ZM102.116 12.571V28.2117H99.4307V12.571H102.116ZM104.576 22.5291V22.282C104.576 21.4441 104.698 20.6671 104.941 19.9509C105.185 19.2276 105.536 18.601 105.994 18.071C106.46 17.5339 107.025 17.1186 107.691 16.825C108.365 16.5242 109.124 16.3738 109.969 16.3738C110.821 16.3738 111.58 16.5242 112.246 16.825C112.919 17.1186 113.489 17.5339 113.954 18.071C114.42 18.601 114.774 19.2276 115.018 19.9509C115.261 20.6671 115.383 21.4441 115.383 22.282V22.5291C115.383 23.3669 115.261 24.144 115.018 24.8601C114.774 25.5763 114.42 26.2029 113.954 26.74C113.489 27.2699 112.923 27.6853 112.257 27.9861C111.591 28.2797 110.835 28.4265 109.99 28.4265C109.138 28.4265 108.375 28.2797 107.702 27.9861C107.036 27.6853 106.47 27.2699 106.005 26.74C105.539 26.2029 105.185 25.5763 104.941 24.8601C104.698 24.144 104.576 23.3669 104.576 22.5291ZM107.165 22.282V22.5291C107.165 23.0518 107.219 23.546 107.326 24.0115C107.434 24.477 107.602 24.8852 107.831 25.2361C108.06 25.587 108.354 25.8627 108.712 26.0632C109.07 26.2638 109.496 26.364 109.99 26.364C110.47 26.364 110.885 26.2638 111.236 26.0632C111.594 25.8627 111.888 25.587 112.117 25.2361C112.346 24.8852 112.515 24.477 112.622 24.0115C112.737 23.546 112.794 23.0518 112.794 22.5291V22.282C112.794 21.7664 112.737 21.2794 112.622 20.821C112.515 20.3556 112.343 19.9438 112.106 19.5857C111.877 19.2276 111.584 18.9483 111.226 18.7478C110.875 18.5401 110.456 18.4363 109.969 18.4363C109.482 18.4363 109.059 18.5401 108.701 18.7478C108.35 18.9483 108.06 19.2276 107.831 19.5857C107.602 19.9438 107.434 20.3556 107.326 20.821C107.219 21.2794 107.165 21.7664 107.165 22.282ZM120.142 18.9519V28.2117H117.553V16.5886H119.991L120.142 18.9519ZM119.723 21.9705L118.842 21.9597C118.842 21.1576 118.942 20.4164 119.143 19.7361C119.343 19.0557 119.637 18.4649 120.023 17.9636C120.41 17.4552 120.89 17.0649 121.463 16.7927C122.043 16.5134 122.713 16.3738 123.472 16.3738C124.002 16.3738 124.485 16.4526 124.922 16.6101C125.366 16.7605 125.749 17.0004 126.071 17.3298C126.401 17.6593 126.651 18.0818 126.823 18.5974C127.002 19.113 127.092 19.7361 127.092 20.4666V28.2117H124.503V20.6921C124.503 20.1264 124.417 19.6824 124.245 19.3601C124.08 19.0378 123.84 18.8087 123.525 18.6726C123.217 18.5294 122.849 18.4578 122.419 18.4578C121.932 18.4578 121.517 18.5509 121.173 18.7371C120.836 18.9233 120.561 19.1775 120.346 19.4998C120.131 19.822 119.973 20.1944 119.873 20.6169C119.773 21.0395 119.723 21.4906 119.723 21.9705ZM126.931 21.283L125.717 21.5515C125.717 20.8497 125.813 20.1873 126.007 19.5642C126.207 18.934 126.497 18.3826 126.877 17.9099C127.264 17.4301 127.74 17.0541 128.306 16.782C128.871 16.5098 129.52 16.3738 130.25 16.3738C130.844 16.3738 131.374 16.4561 131.84 16.6208C132.312 16.7784 132.714 17.0291 133.043 17.3728C133.372 17.7166 133.623 18.1641 133.795 18.7156C133.967 19.2598 134.053 19.9187 134.053 20.6921V28.2117H131.453V20.6814C131.453 20.0942 131.367 19.6394 131.195 19.3171C131.031 18.9949 130.794 18.7729 130.486 18.6511C130.178 18.5222 129.81 18.4578 129.38 18.4578C128.979 18.4578 128.624 18.533 128.316 18.6833C128.016 18.8266 127.761 19.0307 127.554 19.2957C127.346 19.5535 127.188 19.8507 127.081 20.1873C126.981 20.5238 126.931 20.8891 126.931 21.283ZM141.841 28.4265C140.981 28.4265 140.204 28.2869 139.51 28.0076C138.822 27.7211 138.235 27.3236 137.748 26.8152C137.268 26.3067 136.899 25.7087 136.642 25.0212C136.384 24.3337 136.255 23.5925 136.255 22.7976V22.3679C136.255 21.4584 136.387 20.6348 136.652 19.8972C136.917 19.1596 137.286 18.5294 137.759 18.0066C138.231 17.4766 138.79 17.072 139.435 16.7927C140.079 16.5134 140.777 16.3738 141.529 16.3738C142.36 16.3738 143.087 16.5134 143.71 16.7927C144.333 17.072 144.849 17.4659 145.257 17.9744C145.672 18.4757 145.98 19.0736 146.181 19.7683C146.388 20.463 146.492 21.2292 146.492 22.0671V23.1736H137.512V21.3152H143.936V21.1111C143.921 20.6456 143.828 20.2087 143.656 19.8005C143.492 19.3923 143.237 19.0629 142.894 18.8123C142.55 18.5616 142.091 18.4363 141.519 18.4363C141.089 18.4363 140.706 18.5294 140.369 18.7156C140.04 18.8946 139.764 19.156 139.542 19.4998C139.32 19.8435 139.148 20.2589 139.026 20.7458C138.912 21.2257 138.854 21.7664 138.854 22.3679V22.7976C138.854 23.3061 138.923 23.7787 139.059 24.2156C139.202 24.6453 139.41 25.0212 139.682 25.3435C139.954 25.6658 140.283 25.92 140.67 26.1062C141.057 26.2852 141.497 26.3748 141.991 26.3748C142.614 26.3748 143.169 26.2494 143.656 25.9988C144.143 25.7481 144.566 25.3936 144.924 24.9353L146.288 26.2566C146.037 26.6218 145.712 26.9727 145.311 27.3093C144.91 27.6388 144.419 27.9073 143.839 28.115C143.266 28.3227 142.6 28.4265 141.841 28.4265Z" fill="white"/>
</svg>
