<svg width="200" height="57" viewBox="0 0 200 57" fill="none" xmlns="http://www.w3.org/2000/svg">
<path fill-rule="evenodd" clip-rule="evenodd" d="M24.4471 15.4024L24.4353 56.0444L28.7746 56.0323L28.7625 41.8459L36.4281 41.8338L36.416 56.0323H40.9578V0.900391L36.4039 3.91995L36.3983 37.547L28.8102 37.5219L28.8162 7.91471L0 24.5835L0.0387793 47.4321L4.59272 47.4445L4.59861 27.1114L24.4471 15.4024Z" fill="#1A1A1A"/>
<path fill-rule="evenodd" clip-rule="evenodd" d="M16.567 55.8422V24.9675L12.0856 27.594L12.1802 51.6494L0.0686887 51.5542L0.00882306 55.8181L16.567 55.8422Z" fill="#1A1A1A"/>
<path d="M72.3921 32.9819V18.0494H76.0586V32.9819C76.0586 34.3984 75.7555 35.6049 75.1493 36.6014C74.5431 37.5979 73.717 38.3599 72.6708 38.8874C71.6246 39.415 70.4367 39.6788 69.107 39.6788C67.7479 39.6788 66.5405 39.4492 65.4845 38.99C64.4383 38.5309 63.6171 37.8275 63.0206 36.8798C62.4242 35.9322 62.126 34.7306 62.126 33.2749H65.8218C65.8218 34.1151 65.9538 34.7941 66.2178 35.3118C66.4916 35.8199 66.8729 36.1911 67.3617 36.4256C67.8604 36.6502 68.4421 36.7626 69.107 36.7626C69.7425 36.7626 70.3047 36.6209 70.7936 36.3376C71.2922 36.0445 71.6833 35.6196 71.9668 35.0627C72.2504 34.4961 72.3921 33.8025 72.3921 32.9819Z" fill="#1A1A1A"/>
<path d="M89.4926 35.6489V23.53H93.0417V39.3857H89.6979L89.4926 35.6489ZM89.9912 32.3517L91.1791 32.3224C91.1791 33.3873 91.0618 34.3691 90.8272 35.2679C90.5925 36.1569 90.2307 36.9336 89.7419 37.5979C89.253 38.2524 88.6273 38.7653 87.8646 39.1366C87.102 39.498 86.1878 39.6788 85.1221 39.6788C84.3497 39.6788 83.6409 39.5664 82.9956 39.3417C82.3503 39.117 81.793 38.7702 81.3237 38.3013C80.8641 37.8323 80.5073 37.2218 80.2531 36.4695C79.9988 35.7173 79.8717 34.8185 79.8717 33.7732V23.53H83.4062V33.8025C83.4062 34.3789 83.4747 34.8625 83.6115 35.2532C83.7484 35.6342 83.9342 35.942 84.1688 36.1764C84.4035 36.4109 84.6773 36.577 84.9901 36.6747C85.303 36.7724 85.6354 36.8212 85.9874 36.8212C86.9945 36.8212 87.7864 36.6258 88.3633 36.2351C88.9499 35.8345 89.3655 35.2972 89.6099 34.6231C89.8641 33.949 89.9912 33.1919 89.9912 32.3517Z" fill="#1A1A1A"/>
<path d="M105.566 35.092C105.566 34.7403 105.478 34.4228 105.302 34.1395C105.126 33.8464 104.789 33.5827 104.29 33.3482C103.802 33.1137 103.078 32.8988 102.12 32.7034C101.279 32.5178 100.507 32.298 99.8027 32.044C99.1085 31.7802 98.5121 31.4627 98.0134 31.0915C97.5148 30.7202 97.1286 30.2806 96.8548 29.7726C96.5811 29.2646 96.4442 28.6785 96.4442 28.0141C96.4442 27.3694 96.586 26.7588 96.8695 26.1824C97.153 25.606 97.5588 25.098 98.0868 24.6584C98.6147 24.2187 99.2551 23.8719 100.008 23.6179C100.771 23.3639 101.621 23.2369 102.56 23.2369C103.89 23.2369 105.029 23.4616 105.977 23.911C106.935 24.3506 107.668 24.9514 108.177 25.7134C108.685 26.4657 108.94 27.3156 108.94 28.2633H105.405C105.405 27.8432 105.297 27.4524 105.082 27.0909C104.877 26.7197 104.564 26.4217 104.144 26.197C103.723 25.9626 103.195 25.8453 102.56 25.8453C101.954 25.8453 101.45 25.943 101.049 26.1384C100.658 26.324 100.365 26.5683 100.169 26.8711C99.9836 27.174 99.8907 27.5061 99.8907 27.8676C99.8907 28.1314 99.9396 28.3707 100.037 28.5856C100.145 28.7908 100.321 28.9813 100.565 29.1572C100.81 29.3232 101.142 29.4795 101.563 29.6261C101.993 29.7726 102.531 29.9143 103.176 30.051C104.388 30.305 105.429 30.6323 106.3 31.0329C107.18 31.4236 107.854 31.9316 108.324 32.5569C108.793 33.1724 109.028 33.9539 109.028 34.9015C109.028 35.6049 108.876 36.2497 108.573 36.8359C108.28 37.4123 107.849 37.9154 107.282 38.3452C106.715 38.7653 106.036 39.0926 105.244 39.3271C104.462 39.5615 103.582 39.6788 102.604 39.6788C101.167 39.6788 99.9493 39.4247 98.9521 38.9167C97.9548 38.399 97.197 37.7395 96.6788 36.9384C96.1704 36.1276 95.9162 35.2874 95.9162 34.4179H99.3334C99.3725 35.0725 99.5534 35.5952 99.876 35.9859C100.208 36.3669 100.619 36.6454 101.108 36.8212C101.607 36.9873 102.12 37.0703 102.648 37.0703C103.283 37.0703 103.816 36.9873 104.246 36.8212C104.677 36.6454 105.004 36.4109 105.229 36.1178C105.454 35.815 105.566 35.473 105.566 35.092Z" fill="#1A1A1A"/>
<path d="M119.396 23.53V26.1091H110.45V23.53H119.396ZM113.031 19.6467H116.566V35.0041C116.566 35.4926 116.634 35.8687 116.771 36.1325C116.918 36.3865 117.118 36.5574 117.372 36.6454C117.627 36.7333 117.925 36.7773 118.267 36.7773C118.511 36.7773 118.746 36.7626 118.971 36.7333C119.196 36.704 119.377 36.6747 119.514 36.6454L119.528 39.3417C119.235 39.4296 118.893 39.5078 118.502 39.5762C118.12 39.6446 117.68 39.6788 117.182 39.6788C116.37 39.6788 115.652 39.5371 115.026 39.2538C114.4 38.9607 113.911 38.4869 113.559 37.8323C113.207 37.1778 113.031 36.3083 113.031 35.2239V19.6467Z" fill="#1A1A1A"/>
<path d="M136.585 26.959V29.8752H125.248V26.959H136.585ZM126.157 18.0494V39.3857H122.476V18.0494H126.157ZM139.415 18.0494V39.3857H135.749V18.0494H139.415Z" fill="#1A1A1A"/>
<path d="M142.774 31.6337V31.2966C142.774 30.1536 142.94 29.0936 143.272 28.1167C143.605 27.13 144.084 26.2752 144.71 25.5523C145.345 24.8196 146.118 24.2529 147.027 23.8524C147.946 23.4421 148.982 23.2369 150.136 23.2369C151.299 23.2369 152.336 23.4421 153.245 23.8524C154.164 24.2529 154.942 24.8196 155.577 25.5523C156.213 26.2752 156.697 27.13 157.029 28.1167C157.361 29.0936 157.528 30.1536 157.528 31.2966V31.6337C157.528 32.7767 157.361 33.8367 157.029 34.8136C156.697 35.7905 156.213 36.6454 155.577 37.3781C154.942 38.101 154.169 38.6676 153.26 39.0779C152.351 39.4785 151.319 39.6788 150.165 39.6788C149.002 39.6788 147.961 39.4785 147.041 39.0779C146.132 38.6676 145.36 38.101 144.724 37.3781C144.089 36.6454 143.605 35.7905 143.272 34.8136C142.94 33.8367 142.774 32.7767 142.774 31.6337ZM146.308 31.2966V31.6337C146.308 32.3468 146.382 33.0209 146.528 33.6559C146.675 34.291 146.905 34.8478 147.217 35.3265C147.53 35.8052 147.931 36.1813 148.42 36.4549C148.909 36.7284 149.491 36.8652 150.165 36.8652C150.82 36.8652 151.387 36.7284 151.867 36.4549C152.355 36.1813 152.756 35.8052 153.069 35.3265C153.382 34.8478 153.612 34.291 153.758 33.6559C153.915 33.0209 153.993 32.3468 153.993 31.6337V31.2966C153.993 30.5932 153.915 29.9289 153.758 29.3037C153.612 28.6687 153.377 28.1069 153.055 27.6185C152.742 27.13 152.341 26.749 151.852 26.4755C151.373 26.1921 150.801 26.0505 150.136 26.0505C149.471 26.0505 148.894 26.1921 148.405 26.4755C147.926 26.749 147.53 27.13 147.217 27.6185C146.905 28.1069 146.675 28.6687 146.528 29.3037C146.382 29.9289 146.308 30.5932 146.308 31.2966Z" fill="#1A1A1A"/>
<path d="M164.025 26.7539V39.3857H160.49V23.53H163.819L164.025 26.7539ZM163.453 30.8717L162.25 30.857C162.25 29.7628 162.387 28.7517 162.661 27.8236C162.934 26.8955 163.335 26.0896 163.863 25.4057C164.391 24.7121 165.046 24.1797 165.828 23.8084C166.62 23.4274 167.535 23.2369 168.571 23.2369C169.295 23.2369 169.954 23.3444 170.551 23.5593C171.157 23.7645 171.68 24.0917 172.12 24.5411C172.57 24.9905 172.912 25.5669 173.147 26.2703C173.391 26.9737 173.513 27.8236 173.513 28.8201V39.3857H169.979V29.1278C169.979 28.3561 169.862 27.7504 169.627 27.3107C169.402 26.8711 169.075 26.5585 168.644 26.3729C168.224 26.1775 167.72 26.0798 167.134 26.0798C166.469 26.0798 165.902 26.2068 165.433 26.4608C164.973 26.7148 164.597 27.0616 164.303 27.5012C164.01 27.9409 163.795 28.4489 163.658 29.0253C163.521 29.6017 163.453 30.2171 163.453 30.8717ZM173.293 29.9338L171.636 30.3002C171.636 29.3428 171.768 28.4391 172.032 27.5892C172.306 26.7295 172.702 25.9772 173.22 25.3324C173.748 24.6779 174.398 24.165 175.171 23.7938C175.943 23.4225 176.828 23.2369 177.825 23.2369C178.637 23.2369 179.36 23.3493 179.996 23.574C180.641 23.7889 181.189 24.1308 181.638 24.5997C182.088 25.0687 182.43 25.6793 182.665 26.4315C182.9 27.174 183.017 28.0728 183.017 29.1278V39.3857H179.468V29.1132C179.468 28.3121 179.35 27.6917 179.116 27.2521C178.891 26.8125 178.568 26.5097 178.148 26.3436C177.727 26.1677 177.224 26.0798 176.637 26.0798C176.09 26.0798 175.606 26.1824 175.185 26.3875C174.775 26.5829 174.428 26.8613 174.144 27.2228C173.861 27.5745 173.645 27.9799 173.499 28.4391C173.362 28.8983 173.293 29.3965 173.293 29.9338Z" fill="#1A1A1A"/>
<path d="M193.65 39.6788C192.476 39.6788 191.416 39.4883 190.467 39.1072C189.529 38.7165 188.727 38.1743 188.062 37.4806C187.407 36.787 186.903 35.9713 186.551 35.0334C186.199 34.0956 186.023 33.0844 186.023 32V31.4139C186.023 30.1732 186.204 29.0497 186.566 28.0434C186.928 27.0372 187.431 26.1775 188.077 25.4643C188.722 24.7414 189.485 24.1894 190.365 23.8084C191.244 23.4274 192.198 23.2369 193.224 23.2369C194.359 23.2369 195.351 23.4274 196.202 23.8084C197.052 24.1894 197.756 24.7267 198.313 25.4204C198.88 26.1042 199.301 26.92 199.575 27.8676C199.858 28.8152 200 29.8605 200 31.0036V32.5129H187.739V29.9778H196.51V29.6994C196.49 29.0643 196.363 28.4684 196.128 27.9116C195.903 27.3547 195.556 26.9053 195.087 26.5634C194.618 26.2215 193.992 26.0505 193.21 26.0505C192.623 26.0505 192.1 26.1775 191.64 26.4315C191.191 26.6757 190.814 27.0323 190.511 27.5012C190.208 27.9702 189.973 28.5368 189.807 29.2011C189.651 29.8557 189.573 30.5932 189.573 31.4139V32C189.573 32.6937 189.665 33.3384 189.851 33.9344C190.047 34.5205 190.33 35.0334 190.702 35.473C191.073 35.9127 191.523 36.2595 192.051 36.5135C192.579 36.7577 193.18 36.8798 193.855 36.8798C194.706 36.8798 195.463 36.7089 196.128 36.3669C196.793 36.025 197.37 35.5414 197.859 34.9162L199.721 36.7186C199.379 37.2169 198.934 37.6956 198.387 38.1547C197.839 38.6041 197.169 38.9705 196.378 39.2538C195.595 39.5371 194.686 39.6788 193.65 39.6788Z" fill="#1A1A1A"/>
</svg>
