<svg width="755" height="389" viewBox="0 0 755 389" fill="none" xmlns="http://www.w3.org/2000/svg">
<g clip-path="url(#clip0_7_773)">
<mask id="mask0_7_773" style="mask-type:luminance" maskUnits="userSpaceOnUse" x="0" y="0" width="755" height="389">
<path d="M755 0H0V389H755V0Z" fill="white"/>
</mask>
<g mask="url(#mask0_7_773)">
<mask id="mask1_7_773" style="mask-type:luminance" maskUnits="userSpaceOnUse" x="-2" y="0" width="761" height="389">
<path d="M-1.12695 0H758.38V389H-1.12695V0Z" fill="white"/>
</mask>
<g mask="url(#mask1_7_773)">
<path d="M407.322 111.133C409.149 111.133 410.633 112.618 410.633 114.447C410.633 116.275 409.149 117.76 407.322 117.76C405.494 117.76 404.01 116.275 404.01 114.447C404.01 112.618 405.494 111.133 407.322 111.133Z" fill="#F4F5F6"/>
<path d="M406.291 111.48C408.096 111.48 409.56 112.946 409.56 114.752C409.56 116.557 408.096 118.023 406.291 118.023C404.487 118.023 403.022 116.557 403.022 114.752C403.022 112.946 404.487 111.48 406.291 111.48Z" fill="#F4F5F6"/>
<path d="M407.174 109.983C409.359 109.983 411.133 111.759 411.133 113.945C411.133 116.132 409.359 117.907 407.174 117.907C404.988 117.907 403.214 116.132 403.214 113.945C403.214 111.759 404.988 109.983 407.174 109.983Z" fill="#F4F5F6"/>
<path d="M425.42 52.5032C429.966 52.5032 433.658 56.1968 433.658 60.7461C433.658 65.2954 429.966 68.9891 425.42 68.9891C420.873 68.9891 417.182 65.2954 417.182 60.7461C417.182 56.1968 420.873 52.5032 425.42 52.5032Z" fill="#F4F5F6"/>
<path d="M412.034 43.7092C416.523 43.7092 420.167 47.3557 420.167 51.8469C420.167 56.3381 416.523 59.9846 412.034 59.9846C407.545 59.9846 403.901 56.3381 403.901 51.8469C403.901 47.3557 407.545 43.7092 412.034 43.7092Z" fill="#F4F5F6"/>
<path d="M418.478 48.9453C423.914 48.9453 428.328 53.3619 428.328 58.8015C428.328 64.2412 423.914 68.6578 418.478 68.6578C413.042 68.6578 408.628 64.2412 408.628 58.8015C408.628 53.3619 413.042 48.9453 418.478 48.9453Z" fill="#F4F5F6"/>
<mask id="mask2_7_773" style="mask-type:luminance" maskUnits="userSpaceOnUse" x="-2" y="86" width="761" height="305">
<path d="M-1.69043 86.8203H758.944V390.128H-1.69043V86.8203Z" fill="white"/>
</mask>
<g mask="url(#mask2_7_773)">
<mask id="mask3_7_773" style="mask-type:luminance" maskUnits="userSpaceOnUse" x="-109" y="88" width="965" height="305">
<path d="M-108.743 88.7935H855.854V392.101H-108.743V88.7935Z" fill="white"/>
</mask>
<g mask="url(#mask3_7_773)">
<path d="M122.432 347.169C122.937 347.213 123.447 347.201 123.95 347.134C147.38 343.765 149.648 315.886 149.648 315.886C152.724 277.889 129.755 256.849 129.755 256.849C129.755 256.849 103.694 273.862 100.614 311.904C100.614 311.904 98.3541 339.818 120.939 346.889C121.425 347.037 121.925 347.131 122.432 347.169Z" fill="#E7C873"/>
<path d="M129.046 294.197C128.115 298.731 122.625 389.349 122.625 389.349" stroke="#2A3951" stroke-width="1.46" stroke-linecap="round" stroke-linejoin="round"/>
<path d="M23.5283 358.163C23.9058 358.193 24.2866 358.182 24.6617 358.13C42.1888 355.606 43.8728 334.804 43.8728 334.804C46.1755 306.361 28.997 290.611 28.997 290.611C28.997 290.611 9.51319 303.338 7.2069 331.827C7.2069 331.827 5.51653 352.707 22.415 357.948C22.7779 358.06 23.1509 358.132 23.5283 358.163Z" fill="#E7C873"/>
<path d="M28.1948 318.812C27.2084 323.214 23.4612 389.688 23.4612 389.688" stroke="#2A3951" stroke-width="1.46" stroke-linecap="round" stroke-linejoin="round"/>
</g>
<mask id="mask4_7_773" style="mask-type:luminance" maskUnits="userSpaceOnUse" x="-13" y="89" width="774" height="304">
<path d="M-12.959 89.0754H760.071V392.383H-12.959V89.0754Z" fill="white"/>
</mask>
<g mask="url(#mask4_7_773)">
<path d="M95.9063 343.728L86.7787 334.595L77.6511 343.728L77.5947 390.071H95.9063V343.728Z" fill="white"/>
<path d="M95.9063 343.728L86.7787 334.595L77.6511 343.728L77.5947 390.071H95.9063V343.728Z" stroke="#949DA8" stroke-width="2" stroke-miterlimit="10"/>
<path d="M114.204 343.728L105.077 334.595L95.9492 343.728L95.8816 390.071H114.204V343.728Z" fill="white"/>
<path d="M114.204 343.728L105.077 334.595L95.9492 343.728L95.8816 390.071H114.204V343.728Z" stroke="#949DA8" stroke-width="2" stroke-miterlimit="10"/>
<path d="M132.505 343.728L123.377 334.595L114.249 343.728L114.182 390.071H132.505V343.728Z" fill="white"/>
<path d="M132.505 343.728L123.377 334.595L114.249 343.728L114.182 390.071H132.505V343.728Z" stroke="#949DA8" stroke-width="2" stroke-miterlimit="10"/>
<path d="M150.794 343.728L141.666 334.595L132.539 343.728L132.482 390.071H150.794V343.728Z" fill="white"/>
<path d="M150.794 343.728L141.666 334.595L132.539 343.728L132.482 390.071H150.794V343.728Z" stroke="#949DA8" stroke-width="2" stroke-miterlimit="10"/>
<path d="M169.094 343.728L159.966 334.595L150.839 343.728L150.771 390.071H169.094V343.728Z" fill="white"/>
<path d="M169.094 343.728L159.966 334.595L150.839 343.728L150.771 390.071H169.094V343.728Z" stroke="#949DA8" stroke-width="2" stroke-miterlimit="10"/>
<path d="M187.395 343.728L178.268 334.595L169.14 343.728L169.073 390.071H187.395V343.728Z" fill="white"/>
<path d="M187.395 343.728L178.268 334.595L169.14 343.728L169.073 390.071H187.395V343.728Z" stroke="#949DA8" stroke-width="2" stroke-miterlimit="10"/>
<path d="M207.75 343.694L198.611 334.56L189.482 343.694L189.427 390.036H207.75V343.694Z" fill="white"/>
<path d="M207.75 343.694L198.611 334.56L189.482 343.694L189.427 390.036H207.75V343.694Z" stroke="#949DA8" stroke-width="2" stroke-miterlimit="10"/>
<path d="M507.632 236.127H186.856L187.06 390.171H507.607L507.632 236.127Z" fill="white"/>
<path d="M507.632 236.127H186.856L187.06 390.171H507.607L507.632 236.127Z" stroke="#949DA8" stroke-width="2" stroke-miterlimit="10"/>
<path d="M474.567 261.543H426.281V366.506H474.567V261.543Z" fill="#D2DCE4"/>
<path d="M465.193 324.075C466.437 324.075 467.446 325.086 467.446 326.331C467.446 327.575 466.437 328.586 465.193 328.586C463.949 328.586 462.939 327.575 462.939 326.331C462.939 325.086 463.949 324.075 465.193 324.075Z" fill="white"/>
<path d="M465.193 324.075C466.437 324.075 467.446 325.086 467.446 326.331C467.446 327.575 466.437 328.586 465.193 328.586C463.949 328.586 462.939 327.575 462.939 326.331C462.939 325.086 463.949 324.075 465.193 324.075Z" stroke="#949DA8" stroke-miterlimit="10"/>
<path d="M505.76 366.923H400.961V377.071H505.76V366.923Z" fill="white"/>
<path d="M505.76 366.923H400.961V377.071H505.76V366.923Z" stroke="#949DA8" stroke-miterlimit="10"/>
<path d="M505.76 377.071H400.961V388.346H505.76V377.071Z" fill="white"/>
<path d="M505.76 377.071H400.961V388.346H505.76V377.071Z" stroke="#949DA8" stroke-miterlimit="10"/>
<path d="M652.128 133.376H412.951V112.314H392.036V133.343H252.79L186.857 236.129H689.439L652.128 133.376Z" fill="white"/>
<path d="M652.128 133.376H412.951V112.314H392.036V133.343H252.79L186.857 236.129H689.439L652.128 133.376Z" stroke="#949DA8" stroke-width="2" stroke-miterlimit="10"/>
<path d="M409.976 244.021H400.961V366.923H409.976V244.021Z" fill="white"/>
<path d="M409.976 244.021H400.961V366.923H409.976V244.021Z" stroke="#949DA8" stroke-miterlimit="10"/>
<path d="M519.464 104.624L315.828 232.103V243.751H506.267V390.973H723.03V235.373L519.464 104.624Z" fill="white"/>
<path d="M519.464 104.624L315.828 232.103V243.751H506.267V390.973H723.03V235.373L519.464 104.624Z" stroke="#949DA8" stroke-width="2" stroke-miterlimit="10"/>
<path d="M557.157 155.577H481.894V192.234H557.157V155.577Z" fill="white"/>
<path d="M557.157 155.577H481.894V192.234H557.157V155.577Z" stroke="#949DA8" stroke-miterlimit="10"/>
<path d="M516.104 162.488H488.857V185.535H516.149L516.104 162.488Z" fill="white"/>
<path d="M516.104 162.488H488.857V185.535H516.149L516.104 162.488Z" stroke="#949DA8" stroke-miterlimit="10"/>
<path d="M550.26 162.489H522.967V185.536H550.26V162.489Z" fill="white"/>
<path d="M550.26 162.489H522.967V185.536H550.26V162.489Z" stroke="#949DA8" stroke-miterlimit="10"/>
<path d="M608.901 261.667H574.499V334.224H608.889L608.901 261.667Z" fill="white"/>
<path d="M608.901 261.667H574.499V334.224H608.889L608.901 261.667Z" stroke="#949DA8" stroke-miterlimit="10"/>
<path d="M591.705 261.667V290.926" stroke="#949DA8" stroke-miterlimit="10"/>
<path d="M574.556 291.446H608.902" stroke="#949DA8" stroke-miterlimit="10"/>
<path d="M654.201 261.667H619.797V334.224H654.189L654.201 261.667Z" fill="white"/>
<path d="M654.201 261.667H619.797V334.224H654.189L654.201 261.667Z" stroke="#949DA8" stroke-miterlimit="10"/>
<path d="M636.996 261.667V290.926" stroke="#949DA8" stroke-miterlimit="10"/>
<path d="M619.844 291.446H654.202" stroke="#949DA8" stroke-miterlimit="10"/>
<path d="M254.246 261.667H219.854V334.224H254.246V261.667Z" fill="white"/>
<path d="M254.246 261.667H219.854V334.224H254.246V261.667Z" stroke="#949DA8" stroke-miterlimit="10"/>
<path d="M237.045 261.667V290.926" stroke="#949DA8" stroke-miterlimit="10"/>
<path d="M219.885 291.446H254.243" stroke="#949DA8" stroke-miterlimit="10"/>
<path d="M299.545 261.667H265.153V334.224H299.545V261.667Z" fill="white"/>
<path d="M299.545 261.667H265.153V334.224H299.545V261.667Z" stroke="#949DA8" stroke-miterlimit="10"/>
<path d="M282.336 261.667V290.926" stroke="#949DA8" stroke-miterlimit="10"/>
<path d="M265.173 291.446H299.531" stroke="#949DA8" stroke-miterlimit="10"/>
<path d="M344.821 261.667H310.429V334.224H344.821V261.667Z" fill="white"/>
<path d="M344.821 261.667H310.429V334.224H344.821V261.667Z" stroke="#949DA8" stroke-miterlimit="10"/>
<path d="M327.625 261.667V290.926" stroke="#949DA8" stroke-miterlimit="10"/>
<path d="M310.474 291.446H344.821" stroke="#949DA8" stroke-miterlimit="10"/>
<path d="M467.728 268.207H433.099V318.191H467.728V268.207Z" fill="white"/>
<path d="M467.728 268.207H433.099V318.191H467.728V268.207Z" stroke="#949DA8" stroke-miterlimit="10"/>
<path d="M719.504 232.722H315.883V243.22H315.714L723.166 243.716L719.504 232.722Z" fill="white"/>
<path d="M719.504 232.722H315.883V243.22H315.714L723.166 243.716L719.504 232.722Z" stroke="#949DA8" stroke-miterlimit="10"/>
<path d="M737.476 243.717H720.494L519.359 105.829L316.209 243.717H297.897L519.359 92.458L737.476 243.717Z" fill="white"/>
<path d="M720.494 243.717L519.36 105.828L316.208 243.717" stroke="#949DA8" stroke-miterlimit="10"/>
<path d="M316.207 243.717H297.896L519.359 92.458L737.475 243.717H720.493" stroke="#949DA8" stroke-width="2" stroke-miterlimit="10"/>
<path d="M331.377 243.751H322.486L322.547 382.573H331.438L331.377 243.751Z" fill="white"/>
<path d="M331.377 243.751H322.486L322.547 382.573H331.438L331.377 243.751Z" stroke="#949DA8" stroke-width="2" stroke-miterlimit="10"/>
<path d="M412.782 112.427H392.139V133.421H412.782V112.427Z" fill="white"/>
<path d="M412.782 112.427H392.139V133.421H412.782V112.427Z" stroke="#949DA8" stroke-width="2" stroke-miterlimit="10"/>
<path d="M373.793 354.689H365.116V388.978H373.793V354.689Z" fill="white"/>
<path d="M373.793 354.689H365.116V388.978H373.793V354.689Z" stroke="#949DA8" stroke-width="2" stroke-miterlimit="10"/>
<path d="M369.452 307.817C373.936 307.817 378.235 309.599 381.404 312.771C384.574 315.942 386.355 320.245 386.355 324.73V355.817H352.549V324.73C352.549 320.245 354.33 315.942 357.5 312.771C360.67 309.599 364.969 307.817 369.452 307.817Z" fill="#D2DCE4"/>
<path d="M381.116 319.555H357.812V324.46H381.116V319.555Z" fill="white"/>
<path d="M381.116 319.555H357.812V324.46H381.116V319.555Z" stroke="#949DA8" stroke-miterlimit="10"/>
</g>
<path d="M292.304 383.773C292.39 381.981 292.904 380.237 293.806 378.687C294.707 377.137 295.969 375.827 297.484 374.867C298.998 373.908 300.721 373.327 302.508 373.176C304.294 373.023 306.09 373.303 307.746 373.993C308.53 371.4 309.973 369.054 311.933 367.184C313.892 365.316 316.301 363.987 318.927 363.326C321.553 362.666 324.306 362.696 326.916 363.418C329.526 364.138 331.906 365.521 333.822 367.437C335.446 363.539 338.393 360.341 342.143 358.403C345.893 356.465 350.207 355.914 354.324 356.846C358.441 357.777 362.097 360.132 364.649 363.495C367.202 366.858 368.486 371.014 368.277 375.233C368.245 375.856 368.179 376.477 368.08 377.096C369.314 376.713 370.605 376.55 371.896 376.616C378.097 376.936 383.217 382.245 382.507 388.385C382.397 389.394 381.753 397.284 381.424 398.246L292.123 393.636C291.903 392.646 292.241 384.739 292.294 383.728L292.304 383.773Z" fill="#E7C873"/>
<mask id="mask5_7_773" style="mask-type:luminance" maskUnits="userSpaceOnUse" x="-109" y="88" width="965" height="305">
<path d="M-108.743 88.7935H855.854V392.101H-108.743V88.7935Z" fill="white"/>
</mask>
<g mask="url(#mask5_7_773)">
<path d="M735.957 322.463C737.097 318.794 737.407 314.915 736.865 311.111C736.323 307.306 734.94 303.669 732.821 300.464C730.702 297.258 727.897 294.564 724.609 292.575C721.321 290.587 717.634 289.354 713.812 288.967C709.989 288.58 706.13 289.048 702.509 290.335C698.892 291.624 695.603 293.7 692.885 296.414C690.167 299.131 688.088 302.417 686.794 306.036C685.502 309.655 685.029 313.518 685.413 317.341C682.48 318.483 679.83 320.244 677.643 322.505C675.455 324.765 673.78 327.472 672.734 330.44C671.688 333.408 671.295 336.566 671.582 339.699C671.868 342.833 672.828 345.868 674.394 348.597C675.96 351.327 678.097 353.686 680.66 355.513C683.221 357.339 686.146 358.593 689.237 359.185C692.326 359.776 695.507 359.694 698.561 358.944C701.617 358.193 704.472 356.79 706.935 354.833C708.988 357.104 711.499 358.916 714.298 360.155C717.097 361.394 720.123 362.031 723.185 362.025C726.246 362.018 729.271 361.368 732.064 360.116C734.858 358.866 737.357 357.041 739.401 354.761C741.444 352.481 742.986 349.799 743.926 346.886C744.867 343.972 745.185 340.893 744.862 337.848C744.537 334.803 743.577 331.861 742.042 329.211C740.509 326.56 738.435 324.261 735.957 322.463Z" fill="#E7C873"/>
<path d="M709.329 339.513L697.395 331.551" stroke="#2A3951" stroke-width="1.01" stroke-linecap="round" stroke-linejoin="round"/>
<path d="M709.328 349.457L723.245 337.528" stroke="#2A3951" stroke-width="1.01" stroke-linecap="round" stroke-linejoin="round"/>
<path d="M711.519 319.134C711.039 321.037 707.166 390.624 707.166 390.624" stroke="#2A3951" stroke-width="1.01" stroke-linecap="round" stroke-linejoin="round"/>
</g>
</g>
<mask id="mask6_7_773" style="mask-type:luminance" maskUnits="userSpaceOnUse" x="96" y="86" width="546" height="305">
<path d="M96.3469 86.8203H641.75V390.128H96.3469V86.8203Z" fill="white"/>
</mask>
<g mask="url(#mask6_7_773)">
<path d="M199.296 346.154H283.811V374.342H199.296V346.154Z" fill="#EB664E"/>
<path d="M211.127 374.342V391.255" stroke="#2A3951"/>
<path d="M271.978 374.342V391.255" stroke="#2A3951"/>
<path d="M212.474 355.911V365.462H213.701V361.162H217.037V360.15H213.701V356.931H217.812V355.911H212.474ZM223.587 365.561C224.468 365.561 225.274 365.348 225.997 364.937C226.72 364.519 227.292 363.94 227.706 363.202C228.12 362.464 228.331 361.619 228.331 360.683C228.331 359.739 228.12 358.902 227.706 358.164C227.292 357.418 226.72 356.847 225.997 356.429C225.274 356.01 224.468 355.805 223.587 355.805C222.707 355.805 221.908 356.01 221.186 356.429C220.463 356.847 219.891 357.426 219.469 358.164C219.047 358.91 218.844 359.747 218.844 360.683C218.844 361.611 219.047 362.449 219.469 363.194C219.891 363.94 220.463 364.519 221.186 364.937C221.908 365.348 222.707 365.561 223.587 365.561ZM223.587 364.473C222.925 364.473 222.33 364.321 221.803 364.009C221.276 363.697 220.854 363.255 220.553 362.685C220.252 362.106 220.101 361.436 220.101 360.683C220.101 359.914 220.252 359.245 220.553 358.674C220.854 358.103 221.268 357.662 221.795 357.349C222.323 357.045 222.917 356.885 223.587 356.885C224.25 356.885 224.852 357.045 225.372 357.349C225.899 357.662 226.313 358.103 226.614 358.674C226.915 359.245 227.066 359.914 227.066 360.683C227.066 361.436 226.915 362.106 226.614 362.685C226.313 363.255 225.891 363.697 225.364 364.009C224.837 364.321 224.243 364.473 223.587 364.473ZM236.402 365.462L234.031 361.459C234.784 361.299 235.348 360.965 235.717 360.462C236.094 359.96 236.282 359.382 236.282 358.719C236.282 358.187 236.162 357.707 235.921 357.281C235.672 356.862 235.303 356.528 234.814 356.284C234.317 356.04 233.714 355.911 233.007 355.911H229.957V365.462H231.185V361.558H232.675L234.927 365.462H236.402ZM231.185 356.939H233.007C233.684 356.939 234.181 357.098 234.513 357.41C234.844 357.715 235.01 358.156 235.01 358.719C235.01 359.283 234.844 359.724 234.505 360.059C234.174 360.394 233.669 360.561 233.007 360.561H231.185V356.939ZM244.805 365.561C245.46 365.561 246.025 365.432 246.499 365.173C246.981 364.922 247.343 364.587 247.584 364.176C247.832 363.765 247.953 363.324 247.953 362.86C247.953 362.258 247.817 361.779 247.546 361.429C247.275 361.079 246.951 360.82 246.567 360.645C246.191 360.477 245.686 360.31 245.069 360.135C244.549 359.99 244.15 359.861 243.864 359.739C243.586 359.633 243.345 359.465 243.149 359.245C242.953 359.024 242.855 358.742 242.855 358.392C242.855 357.913 243.021 357.532 243.345 357.266C243.668 356.992 244.09 356.862 244.602 356.862C245.159 356.862 245.596 356.999 245.935 357.273C246.266 357.555 246.454 357.875 246.499 358.24H247.855C247.787 357.502 247.463 356.908 246.906 356.459C246.334 356.018 245.611 355.789 244.73 355.789C244.113 355.789 243.57 355.903 243.096 356.117C242.622 356.337 242.253 356.649 241.989 357.053C241.726 357.456 241.598 357.913 241.598 358.438C241.598 359.031 241.726 359.503 241.997 359.853C242.26 360.203 242.584 360.462 242.961 360.63C243.33 360.789 243.834 360.957 244.459 361.117C244.963 361.254 245.362 361.383 245.664 361.505C245.957 361.619 246.206 361.794 246.409 362.022C246.605 362.251 246.703 362.548 246.703 362.913C246.703 363.377 246.537 363.765 246.198 364.054C245.859 364.359 245.393 364.503 244.805 364.503C244.195 364.503 243.729 364.351 243.405 364.047C243.081 363.742 242.9 363.362 242.855 362.913H241.545C241.553 363.438 241.696 363.895 241.974 364.29C242.253 364.686 242.644 364.998 243.134 365.219C243.623 365.447 244.188 365.561 244.805 365.561ZM256.114 365.462H257.409L254.014 355.972H252.591L249.172 365.462H250.475L251.235 363.339H255.354L256.114 365.462ZM251.582 362.327L253.291 357.502L255 362.327H251.582ZM260.135 355.911H258.9V365.462H263.44V364.45H260.135V355.911ZM269.84 356.931V355.903H264.758V365.462H269.84V364.435H265.993V361.147H269.434V360.12H265.993V356.931H269.84Z" fill="white" stroke="white" stroke-width="0.00671566" stroke-linejoin="round"/>
</g>
</g>
</g>
</g>
<defs>
<clipPath id="clip0_7_773">
<rect width="755" height="389" fill="white"/>
</clipPath>
</defs>
</svg>
