<svg width="845" height="367" viewBox="0 0 845 367" fill="none" xmlns="http://www.w3.org/2000/svg">
<g clip-path="url(#clip0_7_1047)">
<mask id="mask0_7_1047" style="mask-type:luminance" maskUnits="userSpaceOnUse" x="0" y="0" width="845" height="367">
<path d="M845 0H0V367H845V0Z" fill="white"/>
</mask>
<g mask="url(#mask0_7_1047)">
<mask id="mask1_7_1047" style="mask-type:luminance" maskUnits="userSpaceOnUse" x="0" y="0" width="845" height="367">
<path d="M0 0H845V367H0V0Z" fill="white"/>
</mask>
<g mask="url(#mask1_7_1047)">
<path d="M295.187 44.4678L86.1899 205.452H105.907L105.343 367L533.477 366.437L534.04 190.255H547.56L417.465 75.8136L379.897 107.546L295.187 44.4678Z" fill="white"/>
<mask id="mask2_7_1047" style="mask-type:luminance" maskUnits="userSpaceOnUse" x="-200" y="49" width="965" height="303">
<path d="M-199.636 49.1465H764.79V351.978H-199.636V49.1465Z" fill="white"/>
</mask>
<g mask="url(#mask2_7_1047)">
<path d="M644.34 281.952C645.416 278.267 645.659 274.39 645.051 270.601C644.444 266.812 642.999 263.205 640.825 260.042C638.651 256.878 635.802 254.238 632.481 252.311C629.16 250.383 625.454 249.218 621.627 248.899C617.799 248.579 613.95 249.115 610.353 250.464C606.76 251.815 603.509 253.946 600.839 256.704C598.169 259.464 596.147 262.783 594.917 266.418C593.688 270.054 593.283 273.92 593.732 277.731C590.821 278.923 588.202 280.728 586.056 283.024C583.907 285.319 582.281 288.051 581.286 291.033C580.291 294.014 579.954 297.174 580.295 300.298C580.634 303.422 581.647 306.435 583.259 309.132C584.872 311.83 587.049 314.148 589.641 315.926C592.233 317.705 595.179 318.905 598.278 319.442C601.375 319.978 604.554 319.839 607.593 319.036C610.634 318.232 613.464 316.781 615.892 314.784C617.984 317.015 620.524 318.78 623.343 319.967C626.163 321.154 629.199 321.737 632.258 321.677C635.318 321.616 638.33 320.913 641.101 319.614C643.871 318.317 646.338 316.45 648.341 314.138C650.344 311.826 651.839 309.121 652.728 306.195C653.618 303.269 653.883 300.189 653.507 297.155C653.13 294.12 652.119 291.2 650.539 288.581C648.961 285.961 646.848 283.702 644.34 281.952Z" fill="#E7C873"/>
<path d="M617.82 299.473L605.889 291.523" stroke="#2A3951" stroke-width="1.01" stroke-linecap="round" stroke-linejoin="round"/>
<path d="M617.82 309.401L631.734 297.491" stroke="#2A3951" stroke-width="1.01" stroke-linecap="round" stroke-linejoin="round"/>
<path d="M619.539 279.102C619.163 280.591 616.128 350.503 616.128 350.503" stroke="#2A3951" stroke-width="1.01" stroke-linecap="round" stroke-linejoin="round"/>
</g>
<mask id="mask3_7_1047" style="mask-type:luminance" maskUnits="userSpaceOnUse" x="0" y="0" width="845" height="367">
<path d="M0 0H845V367H0V0Z" fill="white"/>
</mask>
<g mask="url(#mask3_7_1047)">
<path d="M698.6 281.024L673.746 366.978" stroke="#949DA8" stroke-width="1.7" stroke-miterlimit="10"/>
<path d="M699.559 281.024L724.402 366.978" stroke="#949DA8" stroke-width="1.7" stroke-miterlimit="10"/>
<path d="M781.849 281.024L806.692 366.978" stroke="#949DA8" stroke-width="1.7" stroke-miterlimit="10"/>
<path d="M792.303 311.215L788.845 321.933L782.75 340.812H701.505L707.612 321.933L711.071 311.215H792.303Z" fill="white"/>
<path d="M792.303 311.215L788.845 321.933L782.75 340.812H701.505L707.612 321.933L711.071 311.215H792.303Z" stroke="#949DA8" stroke-width="0.85" stroke-miterlimit="10"/>
<path d="M782.748 340.812H682.396V348.456H782.748V340.812Z" fill="white"/>
<path d="M782.748 340.812H682.396V348.456H782.748V340.812Z" stroke="#949DA8" stroke-width="0.86" stroke-miterlimit="10"/>
<path d="M792.301 311.215L788.843 321.933H707.61L711.069 311.215H792.301Z" fill="white"/>
<path d="M792.301 311.215L788.843 321.933H707.61L711.069 311.215H792.301Z" stroke="#949DA8" stroke-width="0.87" stroke-miterlimit="10"/>
<path d="M713.582 321.931L707.667 340.765" stroke="#949DA8" stroke-width="0.87" stroke-miterlimit="10"/>
<path d="M721.086 321.931L715.171 340.765" stroke="#949DA8" stroke-width="0.87" stroke-miterlimit="10"/>
<path d="M728.601 321.931L722.686 340.765" stroke="#949DA8" stroke-width="0.87" stroke-miterlimit="10"/>
<path d="M736.116 321.931L730.201 340.765" stroke="#949DA8" stroke-width="0.87" stroke-miterlimit="10"/>
<path d="M743.619 321.931L737.704 340.765" stroke="#949DA8" stroke-width="0.87" stroke-miterlimit="10"/>
<path d="M751.134 321.931L745.219 340.765" stroke="#949DA8" stroke-width="0.87" stroke-miterlimit="10"/>
<path d="M758.649 321.931L752.734 340.765" stroke="#949DA8" stroke-width="0.87" stroke-miterlimit="10"/>
<path d="M766.152 321.931L760.237 340.765" stroke="#949DA8" stroke-width="0.87" stroke-miterlimit="10"/>
<path d="M773.667 321.931L767.752 340.765" stroke="#949DA8" stroke-width="0.87" stroke-miterlimit="10"/>
<path d="M781.182 321.931L775.267 340.765" stroke="#949DA8" stroke-width="0.87" stroke-miterlimit="10"/>
<path d="M683.231 340.949L698.704 280.886L710.523 311.055" stroke="#969EA9"/>
<path d="M764.076 340.958L780.442 280.901L791.566 311.332" stroke="#969EA9"/>
<path d="M780.893 281.024L756.05 366.978" stroke="#949DA8" stroke-width="1.7" stroke-miterlimit="10"/>
<path d="M797.68 272.436H687.571V282.939H797.68V272.436Z" fill="#D2DCE4"/>
</g>
<path d="M534.097 320.956L534.042 367H552.349V320.956L543.224 311.838L534.097 320.956Z" fill="white"/>
<path d="M552.348 320.956L543.222 311.837L534.096 320.956L534.04 367.225H552.348V320.956Z" stroke="#949DA8" stroke-width="2" stroke-miterlimit="10"/>
<path d="M552.393 320.956L552.325 367H570.646V320.956L561.519 311.838L552.393 320.956Z" fill="white"/>
<path d="M570.644 320.956L561.517 311.837L552.391 320.956L552.324 367.225H570.644V320.956Z" stroke="#949DA8" stroke-width="2" stroke-miterlimit="10"/>
<path d="M570.69 320.956L570.621 367H588.94V320.956L579.815 311.838L570.69 320.956Z" fill="white"/>
<path d="M588.941 320.956L579.815 311.837L570.69 320.956L570.621 367.225H588.941V320.956Z" stroke="#949DA8" stroke-width="2" stroke-miterlimit="10"/>
<path d="M588.976 320.956L588.92 367H607.226V320.956L598.102 311.838L588.976 320.956Z" fill="white"/>
<path d="M607.227 320.956L598.101 311.837L588.975 320.956L588.919 367.225H607.227V320.956Z" stroke="#949DA8" stroke-width="2" stroke-miterlimit="10"/>
<path d="M607.272 320.956L607.204 367H625.523V320.956L616.397 311.838L607.272 320.956Z" fill="white"/>
<path d="M625.524 320.956L616.397 311.837L607.272 320.956L607.203 367.225H625.524V320.956Z" stroke="#949DA8" stroke-width="2" stroke-miterlimit="10"/>
<path d="M625.572 320.956L625.503 367H643.823V320.956L634.697 311.838L625.572 320.956Z" fill="white"/>
<path d="M643.824 320.956L634.697 311.837L625.572 320.956L625.502 367.225H643.824V320.956Z" stroke="#949DA8" stroke-width="2" stroke-miterlimit="10"/>
<path d="M105.907 201.512V367H304.2" stroke="#949DA8" stroke-width="2" stroke-miterlimit="10"/>
<path d="M171.368 241.196H149.06V311.792H171.368V241.196Z" fill="white"/>
<path d="M171.368 241.196H149.06V311.792H171.368V241.196Z" stroke="#949DA8" stroke-miterlimit="10"/>
<path d="M335.511 147.577V100.823H252.611V152.057H329.878" stroke="#949DA8" stroke-miterlimit="10"/>
<path d="M290.793 107.578H259.697V145.122H290.793V107.578Z" fill="white"/>
<path d="M290.793 107.578H259.697V145.122H290.793V107.578Z" stroke="#949DA8" stroke-miterlimit="10"/>
<path d="M328.683 107.578H297.632V145.122H328.672L328.683 107.578Z" fill="white"/>
<path d="M328.683 107.578H297.632V145.122H328.672L328.683 107.578Z" stroke="#949DA8" stroke-miterlimit="10"/>
<path d="M481.2 299.24H533.488V189.85" stroke="#949DA8" stroke-miterlimit="10"/>
<path d="M353.661 365.379V219.772H481.2V366.505" stroke="#949DA8" stroke-width="2" stroke-miterlimit="10"/>
<path d="M301.406 189.626V367H533.5V189.129" stroke="#949DA8" stroke-width="2" stroke-miterlimit="10"/>
<path d="M522.954 260.84L507.575 252.172L492.354 261.144L492.782 261.133L496.331 287.239L519.236 286.945L522.447 260.84H522.954Z" fill="#D2DCE4"/>
<path d="M518.48 265.152H497.073V269.655H518.48V265.152Z" fill="white"/>
<path d="M518.48 265.152H497.073V269.655H518.48V265.152Z" stroke="#949DA8" stroke-miterlimit="10"/>
<path d="M371.349 114.896L295.378 56.6711L102.932 204.473" stroke="#949DA8" stroke-miterlimit="10"/>
<path d="M379.8 107.578L304.403 49.725L295.379 42.7791L286.343 49.725L85.627 204.473H102.933L106.02 203.268" stroke="#949DA8" stroke-width="2" stroke-miterlimit="10"/>
<path d="M381.795 239.901H364.816V296.459H381.795V239.901Z" fill="white"/>
<path d="M381.795 239.901H364.816V296.459H381.795V239.901Z" stroke="#949DA8" stroke-miterlimit="10"/>
<path d="M441.069 239.9H392.789V344.7H441.069V239.9Z" fill="#D2DCE4"/>
<path d="M434.229 246.554H399.606V296.459H434.229V246.554Z" fill="white"/>
<path d="M434.229 246.554H399.606V296.459H434.229V246.554Z" stroke="#949DA8" stroke-miterlimit="10"/>
<path d="M432.28 302.831C433.524 302.831 434.533 303.84 434.533 305.083C434.533 306.326 433.524 307.334 432.28 307.334C431.036 307.334 430.026 306.326 430.026 305.083C430.026 303.84 431.036 302.831 432.28 302.831Z" fill="white"/>
<path d="M432.28 302.831C433.524 302.831 434.533 303.84 434.533 305.083C434.533 306.326 433.524 307.334 432.28 307.334C431.036 307.334 430.026 306.326 430.026 305.083C430.026 303.84 431.036 302.831 432.28 302.831Z" stroke="#949DA8" stroke-miterlimit="10"/>
<path d="M533.115 189.5H302.836L315.162 178.524H519.473L533.115 189.5Z" stroke="#949DA8" stroke-miterlimit="10"/>
<path d="M247.45 241.128H182.239V311.882H247.45V241.128Z" fill="white"/>
<path d="M247.45 241.128H182.239V311.882H247.45V241.128Z" stroke="#949DA8" stroke-miterlimit="10"/>
<path d="M182.228 269.621H247.45" stroke="#949DA8" stroke-miterlimit="10"/>
<path d="M214.833 241.128V269.621" stroke="#949DA8" stroke-miterlimit="10"/>
<path d="M149.182 269.677H171.546" stroke="#949DA8" stroke-miterlimit="10"/>
<path d="M280.653 241.207H258.266V311.792H280.653V241.207Z" fill="white"/>
<path d="M280.653 241.207H258.266V311.792H280.653V241.207Z" stroke="#949DA8" stroke-miterlimit="10"/>
<path d="M258.266 269.7H280.619" stroke="#949DA8" stroke-miterlimit="10"/>
<path d="M364.816 260.525H381.795" stroke="#949DA8" stroke-miterlimit="10"/>
<path d="M468.694 239.901H451.715V296.459H468.694V239.901Z" fill="white"/>
<path d="M468.694 239.901H451.715V296.459H468.694V239.901Z" stroke="#949DA8" stroke-miterlimit="10"/>
<path d="M451.715 260.525H468.694" stroke="#949DA8" stroke-miterlimit="10"/>
<path d="M531.844 189.331L417.397 90.1289L302.951 189.331" stroke="#949DA8" stroke-miterlimit="10"/>
<path d="M302.951 189.331H287.041L417.419 75.1787L547.751 189.331H531.842" stroke="#949DA8" stroke-width="2" stroke-miterlimit="10"/>
<path d="M353.886 298.958H300.933" stroke="#949DA8" stroke-miterlimit="10"/>
<path d="M481.345 344.687H353.819V355.686H481.345V344.687Z" stroke="#949DA8" stroke-miterlimit="10"/>
<path d="M481.345 355.945H353.819V366.944H481.345V355.945Z" stroke="#949DA8" stroke-miterlimit="10"/>
<mask id="mask4_7_1047" style="mask-type:luminance" maskUnits="userSpaceOnUse" x="-740" y="68" width="966" height="304">
<path d="M-739.31 68.2844H225.117V371.116H-739.31V68.2844Z" fill="white"/>
</mask>
<g mask="url(#mask4_7_1047)">
<path d="M104.667 301.089C105.742 297.405 105.986 293.528 105.378 289.739C104.77 285.95 103.326 282.343 101.152 279.179C98.978 276.016 96.1286 273.376 92.8072 271.449C89.4869 269.521 85.7806 268.356 81.9538 268.037C78.1259 267.717 74.2763 268.253 70.6798 269.602C67.0866 270.953 63.8354 273.084 61.1652 275.842C58.4959 278.602 56.4741 281.921 55.2438 285.556C54.0145 289.192 53.6094 293.058 54.0589 296.869C51.1475 298.061 48.5289 299.866 46.3825 302.162C44.2339 304.457 42.6072 307.189 41.6126 310.171C40.6181 313.152 40.2804 316.312 40.6212 319.436C40.9609 322.56 41.9737 325.573 43.5856 328.27C45.1987 330.968 47.3755 333.286 49.9681 335.064C52.5597 336.843 55.5052 338.043 58.6047 338.58C61.702 339.115 64.8806 338.977 67.9197 338.174C70.9611 337.37 73.7909 335.919 76.2186 333.922C78.3106 336.153 80.851 337.918 83.6698 339.105C86.4898 340.292 89.5254 340.875 92.585 340.815C95.6446 340.754 98.657 340.051 101.427 338.752C104.198 337.455 106.665 335.588 108.667 333.276C110.67 330.964 112.165 328.259 113.055 325.333C113.944 322.407 114.209 319.327 113.833 316.293C113.456 313.258 112.446 310.338 110.866 307.719C109.287 305.099 107.175 302.84 104.667 301.089Z" fill="#E7C873"/>
<path d="M78.1467 318.611L66.2153 310.661" stroke="#2A3951" stroke-width="1.01" stroke-linecap="round" stroke-linejoin="round"/>
<path d="M78.1465 328.539L92.0608 316.629" stroke="#2A3951" stroke-width="1.01" stroke-linecap="round" stroke-linejoin="round"/>
<path d="M79.8656 298.24C79.4897 299.729 76.4546 369.641 76.4546 369.641" stroke="#2A3951" stroke-width="1.01" stroke-linecap="round" stroke-linejoin="round"/>
</g>
<path d="M255.569 359.551C255.632 357.759 256.124 356.012 257.006 354.453C257.888 352.892 259.132 351.568 260.635 350.591C262.136 349.614 263.852 349.011 265.636 348.837C267.42 348.662 269.219 348.919 270.883 349.586C271.634 346.986 273.047 344.625 274.983 342.733C276.918 340.843 279.309 339.484 281.926 338.791C284.543 338.098 287.295 338.093 289.914 338.78C292.532 339.465 294.929 340.817 296.869 342.705C298.443 338.792 301.349 335.56 305.073 333.577C308.798 331.594 313.104 330.989 317.231 331.866C321.358 332.743 325.043 335.047 327.636 338.374C330.231 341.699 331.567 345.833 331.411 350.048C331.387 350.671 331.329 351.292 331.237 351.911C332.466 351.513 333.755 351.334 335.046 351.383C341.249 351.623 346.435 356.859 345.802 362.999C345.705 364.008 345.16 371.895 344.843 372.861L255.512 369.402C255.28 368.416 255.518 360.515 255.558 359.505L255.569 359.551Z" fill="#E7C873"/>
</g>
<mask id="mask5_7_1047" style="mask-type:luminance" maskUnits="userSpaceOnUse" x="185" y="70" width="966" height="304">
<path d="M185.9 70.9233H1150.33V373.755H185.9V70.9233Z" fill="white"/>
</mask>
<g mask="url(#mask5_7_1047)">
<mask id="mask6_7_1047" style="mask-type:luminance" maskUnits="userSpaceOnUse" x="185" y="70" width="966" height="304">
<path d="M185.9 70.9233H1150.33V373.755H185.9V70.9233Z" fill="white"/>
</mask>
<g mask="url(#mask6_7_1047)">
<path d="M498.391 329.85H582.891V357.994H498.391V329.85Z" fill="#E7C873"/>
<path d="M510.221 357.994V374.88" stroke="#2A3951"/>
<path d="M571.061 357.994V374.88" stroke="#2A3951"/>
<path d="M509.917 339.266V349.122H511.894V344.958H515.041V343.392H511.894V340.864H516.005V339.266H509.917ZM521.983 349.219C522.902 349.219 523.749 349.007 524.527 348.571C525.297 348.141 525.907 347.538 526.35 346.774C526.8 346.004 527.025 345.138 527.025 344.169C527.025 343.206 526.8 342.346 526.35 341.576C525.907 340.813 525.297 340.209 524.533 339.78C523.762 339.343 522.915 339.125 521.983 339.125C521.059 339.125 520.211 339.343 519.44 339.78C518.663 340.209 518.053 340.813 517.604 341.576C517.148 342.346 516.923 343.206 516.923 344.169C516.923 345.138 517.148 346.004 517.604 346.774C518.053 347.538 518.663 348.141 519.44 348.571C520.211 349.007 521.059 349.219 521.983 349.219ZM521.983 347.454C521.386 347.454 520.86 347.326 520.404 347.056C519.948 346.787 519.594 346.402 519.338 345.901C519.087 345.407 518.959 344.823 518.959 344.169C518.959 343.508 519.087 342.93 519.338 342.436C519.594 341.942 519.948 341.563 520.404 341.3C520.86 341.037 521.386 340.909 521.983 340.909C522.574 340.909 523.094 341.037 523.55 341.3C524 341.563 524.353 341.942 524.61 342.436C524.86 342.93 524.989 343.508 524.989 344.169C524.989 344.823 524.86 345.407 524.61 345.901C524.353 346.402 524 346.787 523.55 347.056C523.094 347.326 522.574 347.454 521.983 347.454ZM535.868 349.122L533.511 345.125C534.256 344.932 534.815 344.573 535.193 344.047C535.566 343.527 535.759 342.937 535.759 342.289C535.759 341.724 535.624 341.217 535.354 340.761C535.084 340.299 534.68 339.94 534.147 339.67C533.607 339.401 532.959 339.266 532.194 339.266H528.495V349.122H530.473V345.285H531.405L533.582 349.122H535.868ZM530.473 340.909H532.124C532.663 340.909 533.061 341.031 533.325 341.281C533.588 341.531 533.723 341.878 533.723 342.333C533.723 342.795 533.588 343.155 533.325 343.411C533.061 343.668 532.663 343.803 532.124 343.803H530.473V340.909ZM544.319 349.219C545.045 349.219 545.668 349.09 546.194 348.821C546.727 348.551 547.126 348.192 547.395 347.736C547.671 347.287 547.806 346.8 547.806 346.273C547.806 345.657 547.659 345.163 547.37 344.791C547.081 344.413 546.727 344.13 546.323 343.944C545.918 343.752 545.398 343.565 544.756 343.379C544.287 343.238 543.921 343.11 543.664 343.001C543.401 342.892 543.182 342.751 543.009 342.577C542.836 342.404 542.752 342.186 542.752 341.923C542.752 341.544 542.868 341.262 543.099 341.063C543.324 340.864 543.632 340.768 544.024 340.768C544.467 340.768 544.82 340.877 545.09 341.095C545.36 341.32 545.501 341.595 545.52 341.936H547.697C547.626 341.05 547.28 340.363 546.644 339.869C546.008 339.375 545.18 339.125 544.165 339.125C543.484 339.125 542.881 339.241 542.354 339.472C541.827 339.703 541.416 340.036 541.127 340.466C540.832 340.902 540.684 341.409 540.684 341.993C540.684 342.616 540.832 343.11 541.121 343.482C541.404 343.854 541.75 344.13 542.149 344.316C542.547 344.502 543.067 344.682 543.709 344.875C544.184 345.003 544.55 345.125 544.82 345.234C545.09 345.343 545.315 345.491 545.488 345.677C545.668 345.869 545.758 346.107 545.758 346.395C545.758 346.755 545.629 347.043 545.366 347.268C545.103 347.486 544.737 347.595 544.274 347.595C543.825 347.595 543.465 347.48 543.208 347.242C542.951 347.011 542.804 346.69 542.778 346.286H540.659C540.665 346.889 540.832 347.409 541.153 347.852C541.474 348.295 541.911 348.635 542.463 348.866C543.009 349.103 543.632 349.219 544.319 349.219ZM556.213 349.122H558.306L554.761 339.253H552.456L548.911 349.122H550.985L551.634 347.242H555.564L556.213 349.122ZM552.173 345.664L553.599 341.544L555.025 345.664H552.173ZM561.614 339.266H559.636V349.122H564.863V347.557H561.614V339.266ZM571.837 340.864V339.253H566.115V349.122H571.837V347.512H568.093V344.9H571.414V343.334H568.093V340.864H571.837Z" fill="#1F4B43"/>
</g>
</g>
<path d="M698.6 281.024L673.746 366.978" stroke="#949DA8" stroke-width="1.7" stroke-miterlimit="10"/>
<path d="M699.559 281.024L724.402 366.978" stroke="#949DA8" stroke-width="1.7" stroke-miterlimit="10"/>
<path d="M781.849 281.024L806.692 366.978" stroke="#949DA8" stroke-width="1.7" stroke-miterlimit="10"/>
<path d="M792.303 311.215L788.845 321.933L782.75 340.812H701.505L707.612 321.933L711.071 311.215H792.303Z" fill="white"/>
<path d="M792.303 311.215L788.845 321.933L782.75 340.812H701.505L707.612 321.933L711.071 311.215H792.303Z" stroke="#949DA8" stroke-width="0.85" stroke-miterlimit="10"/>
<path d="M782.748 340.812H682.396V348.456H782.748V340.812Z" fill="white"/>
<path d="M782.748 340.812H682.396V348.456H782.748V340.812Z" stroke="#949DA8" stroke-width="0.86" stroke-miterlimit="10"/>
<path d="M792.301 311.215L788.843 321.933H707.61L711.069 311.215H792.301Z" fill="white"/>
<path d="M792.301 311.215L788.843 321.933H707.61L711.069 311.215H792.301Z" stroke="#949DA8" stroke-width="0.87" stroke-miterlimit="10"/>
<path d="M713.582 321.931L707.667 340.765" stroke="#949DA8" stroke-width="0.87" stroke-miterlimit="10"/>
<path d="M721.086 321.931L715.171 340.765" stroke="#949DA8" stroke-width="0.87" stroke-miterlimit="10"/>
<path d="M728.601 321.931L722.686 340.765" stroke="#949DA8" stroke-width="0.87" stroke-miterlimit="10"/>
<path d="M736.116 321.931L730.201 340.765" stroke="#949DA8" stroke-width="0.87" stroke-miterlimit="10"/>
<path d="M743.619 321.931L737.704 340.765" stroke="#949DA8" stroke-width="0.87" stroke-miterlimit="10"/>
<path d="M751.134 321.931L745.219 340.765" stroke="#949DA8" stroke-width="0.87" stroke-miterlimit="10"/>
<path d="M758.649 321.931L752.734 340.765" stroke="#949DA8" stroke-width="0.87" stroke-miterlimit="10"/>
<path d="M766.152 321.931L760.237 340.765" stroke="#949DA8" stroke-width="0.87" stroke-miterlimit="10"/>
<path d="M773.667 321.931L767.752 340.765" stroke="#949DA8" stroke-width="0.87" stroke-miterlimit="10"/>
<path d="M781.182 321.931L775.267 340.765" stroke="#949DA8" stroke-width="0.87" stroke-miterlimit="10"/>
<path d="M683.231 340.949L698.704 280.886L710.523 311.055" stroke="#969EA9"/>
<path d="M764.076 340.958L780.442 280.901L791.566 311.332" stroke="#969EA9"/>
<path d="M780.893 281.024L756.05 366.978" stroke="#949DA8" stroke-width="1.7" stroke-miterlimit="10"/>
<path d="M797.68 272.436H687.571V282.939H797.68V272.436Z" fill="#D2DCE4"/>
</g>
</g>
<defs>
<clipPath id="clip0_7_1047">
<rect width="845" height="367" fill="white"/>
</clipPath>
</defs>
</svg>
