<svg width="40" height="40" viewBox="0 0 40 40" fill="none" xmlns="http://www.w3.org/2000/svg">
<g clip-path="url(#clip0_182_13338)">
<path d="M12.4508 26.0102H32.9289C33.074 26.0102 33.2132 26.0678 33.3159 26.1704C33.4185 26.2731 33.4762 26.4123 33.4762 26.5574C33.4762 26.7026 33.4185 26.8418 33.3159 26.9444C33.2132 27.047 33.074 27.1047 32.9289 27.1047H12.4508C12.3789 27.1047 12.3077 27.0905 12.2413 27.063C12.1749 27.0355 12.1146 26.9952 12.0638 26.9444C12.013 26.8936 11.9727 26.8332 11.9452 26.7669C11.9176 26.7005 11.9035 26.6293 11.9035 26.5574C11.9035 26.4856 11.9176 26.4144 11.9452 26.348C11.9727 26.2816 12.013 26.2213 12.0638 26.1704C12.1146 26.1196 12.1749 26.0793 12.2413 26.0518C12.3077 26.0243 12.3789 26.0102 12.4508 26.0102ZM32.9289 30.1117H12.4508C12.3056 30.1117 12.1664 30.1694 12.0638 30.272C11.9612 30.3746 11.9035 30.5138 11.9035 30.659C11.9035 30.8041 11.9612 30.9433 12.0638 31.046C12.1664 31.1486 12.3056 31.2062 12.4508 31.2062H32.9289C33.074 31.2063 33.2132 31.1486 33.3159 31.046C33.4185 30.9433 33.4762 30.8041 33.4762 30.659C33.4762 30.5138 33.4185 30.3746 33.3159 30.272C33.2132 30.1694 33.074 30.1117 32.9289 30.1117ZM8.85857 14.7559H7.19076V16.306H8.85834C9.0639 16.306 9.26104 16.2244 9.4064 16.079C9.55175 15.9336 9.63341 15.7365 9.63341 15.5309C9.63341 15.3254 9.55175 15.1282 9.4064 14.9829C9.26104 14.8375 9.0639 14.7559 8.85834 14.7559H8.85857ZM32.9289 34.2133H12.4508C12.3789 34.2133 12.3078 34.2274 12.2415 34.2549C12.1751 34.2824 12.1148 34.3227 12.0641 34.3735C12.0133 34.4242 11.973 34.4845 11.9455 34.5509C11.918 34.6172 11.9039 34.6883 11.9039 34.7602C11.9039 34.832 11.918 34.9031 11.9455 34.9694C11.973 35.0358 12.0133 35.0961 12.0641 35.1469C12.1148 35.1976 12.1751 35.2379 12.2415 35.2654C12.3078 35.2929 12.3789 35.307 12.4508 35.307H32.9289C33.0739 35.307 33.213 35.2494 33.3156 35.1469C33.4181 35.0443 33.4758 34.9052 33.4758 34.7602C33.4758 34.6151 33.4181 34.476 33.3156 34.3735C33.213 34.2709 33.0739 34.2133 32.9289 34.2133ZM14.84 17.7301V15.9766C14.8393 15.6528 14.7102 15.3424 14.4811 15.1137C14.2519 14.8849 13.9414 14.7564 13.6176 14.7563H12.3951V18.9529H13.6176C13.9417 18.9525 14.2525 18.8236 14.4817 18.5943C14.7108 18.365 14.8397 18.0542 14.84 17.7301ZM37.564 11.7438V36.6445C37.5627 37.5345 37.2084 38.3875 36.5789 39.0165C35.9494 39.6456 35.0961 39.9993 34.2062 40H11.1726C10.2828 39.9993 9.42959 39.6455 8.80023 39.0165C8.17087 38.3874 7.81676 37.5344 7.8156 36.6445V22.5117H3.6031C3.29368 22.5113 2.99705 22.3882 2.77825 22.1694C2.55946 21.9506 2.43635 21.654 2.43591 21.3445V12.3641C2.4362 12.0546 2.55927 11.7579 2.77809 11.5391C2.99692 11.3202 3.29363 11.1972 3.6031 11.1969H7.8156V3.35703C7.81657 2.46699 8.17057 1.61368 8.79993 0.984325C9.42928 0.35497 10.2826 0.000971922 11.1726 0L25.8203 0C25.9653 0.000296683 26.1043 0.0578602 26.207 0.160156L37.4039 11.357C37.5062 11.4598 37.5637 11.5988 37.564 11.7438ZM8.85834 17.4C9.10379 17.4 9.34685 17.3517 9.57362 17.2577C9.8004 17.1638 10.0065 17.0261 10.18 16.8525C10.3536 16.679 10.4913 16.4729 10.5852 16.2461C10.6791 16.0194 10.7275 15.7763 10.7275 15.5309C10.7275 15.2854 10.6791 15.0423 10.5852 14.8156C10.4913 14.5888 10.3536 14.3827 10.18 14.2092C10.0065 14.0356 9.8004 13.8979 9.57362 13.804C9.34685 13.7101 9.10379 13.6617 8.85834 13.6617H6.64373C6.49869 13.6617 6.35959 13.7193 6.25703 13.8219C6.15447 13.9245 6.09685 14.0636 6.09685 14.2086V19.4993C6.09685 19.6443 6.15447 19.7834 6.25703 19.886C6.35959 19.9886 6.49869 20.0462 6.64373 20.0462C6.78877 20.0462 6.92787 19.9886 7.03043 19.886C7.13298 19.7834 7.1906 19.6443 7.1906 19.4993V17.4001L8.85834 17.4ZM36.4703 12.2914H27.3812C26.8222 12.2907 26.2863 12.0683 25.891 11.673C25.4957 11.2778 25.2733 10.7418 25.2726 10.1828V1.09375H11.1726C10.5726 1.09454 9.9974 1.33324 9.57312 1.75752C9.14884 2.18179 8.91014 2.75701 8.90935 3.35703V11.1969H23.632C23.9415 11.1972 24.2382 11.3202 24.457 11.5391C24.6758 11.7579 24.7989 12.0546 24.7992 12.3641V21.3445C24.7988 21.654 24.6757 21.9506 24.4569 22.1694C24.2381 22.3882 23.9414 22.5113 23.632 22.5117H8.90935V36.6445C8.91039 37.2443 9.14922 37.8192 9.57349 38.2432C9.99776 38.6672 10.5728 38.9056 11.1726 38.9062H34.2062C34.8062 38.9058 35.3814 38.6675 35.8059 38.2435C36.2303 37.8195 36.4693 37.2445 36.4703 36.6445V12.2914ZM11.848 20.0469H13.6176C14.2317 20.0462 14.8205 19.8019 15.2547 19.3676C15.689 18.9333 15.9333 18.3445 15.934 17.7304V15.9766C15.933 15.3627 15.6886 14.7743 15.2543 14.3404C14.8201 13.9065 14.2314 13.6626 13.6176 13.6622H11.848C11.703 13.6622 11.5639 13.7198 11.4613 13.8224C11.3588 13.9249 11.3011 14.064 11.3011 14.2091V19.4998C11.3011 19.5716 11.3152 19.6427 11.3427 19.7091C11.3702 19.7755 11.4105 19.8358 11.4612 19.8866C11.512 19.9374 11.5723 19.9777 11.6387 20.0052C11.7051 20.0327 11.7762 20.0469 11.848 20.0469ZM17.6015 16.306V14.7559H20.5912C20.7363 14.7559 20.8754 14.6982 20.9779 14.5957C21.0805 14.4931 21.1381 14.354 21.1381 14.209C21.1381 14.0639 21.0805 13.9248 20.9779 13.8223C20.8754 13.7197 20.7363 13.6621 20.5912 13.6621H17.0547C16.9096 13.6621 16.7705 13.7197 16.668 13.8223C16.5654 13.9248 16.5078 14.0639 16.5078 14.209V19.4997C16.5078 19.5715 16.5219 19.6426 16.5494 19.709C16.5769 19.7753 16.6172 19.8356 16.668 19.8864C16.7187 19.9372 16.779 19.9775 16.8454 20.0049C16.9117 20.0324 16.9828 20.0466 17.0547 20.0466C17.1265 20.0466 17.1976 20.0324 17.2639 20.0049C17.3303 19.9775 17.3906 19.9372 17.4414 19.8864C17.4921 19.8356 17.5324 19.7753 17.5599 19.709C17.5874 19.6426 17.6015 19.5715 17.6015 19.4997V17.4001H20.0664C20.2114 17.4001 20.3505 17.3425 20.4531 17.2399C20.5556 17.1373 20.6133 16.9982 20.6133 16.8532C20.6133 16.7082 20.5556 16.5691 20.4531 16.4665C20.3505 16.3639 20.2114 16.3063 20.0664 16.3063L17.6015 16.306Z" fill="#EB664E"/>
</g>
<defs>
<clipPath id="clip0_182_13338">
<rect width="40" height="40" fill="white"/>
</clipPath>
</defs>
</svg>
