<svg width="130" height="131" viewBox="0 0 130 131" fill="none" xmlns="http://www.w3.org/2000/svg">
<g opacity="0.06">
<path d="M11.8179 76.23L64.9998 17.1391L118.182 76.23C118.183 68.6206 115.367 61.2784 110.278 55.6219L64.9998 5.3208L19.7215 55.6219C14.6322 61.2784 11.8166 68.6191 11.8179 76.23Z" fill="#1F4B43"/>
</g>
<g opacity="0.12">
<path d="M107.84 64.7369V73.5708L64.9995 25.9733L22.1587 73.5708V64.7369L64.9995 17.1392L107.84 64.7369Z" fill="#1F4B43"/>
<path d="M107.841 75.0482C107.43 75.0482 107.028 74.8768 106.743 74.5592L64.9997 28.1817L23.2565 74.5592C22.8472 75.0142 22.2018 75.1709 21.6285 74.9507C21.0582 74.7306 20.6816 74.1827 20.6816 73.571V64.7368C20.6816 64.372 20.8175 64.0203 21.0612 63.7486L63.9021 16.1506C64.4619 15.5273 65.5375 15.5273 66.0973 16.1506L108.938 63.7484C109.182 64.0188 109.318 64.3702 109.318 64.7353V73.5695C109.318 74.1811 108.941 74.7291 108.369 74.9492C108.197 75.0157 108.018 75.0482 107.841 75.0482ZM64.9997 24.4957C65.4179 24.4957 65.818 24.673 66.0973 24.9848L106.363 69.721V65.3025L64.9997 19.3475L23.6361 65.3025V69.721L63.9021 24.9848C64.1814 24.6732 64.5815 24.4957 64.9997 24.4957Z" fill="#1F4B43"/>
</g>
<path d="M93.0681 76.23H75.3408V111.684H93.0681V76.23Z" fill="#E7C873"/>
<path d="M107.841 105.776V91.5643C110.032 89.1461 113.768 88.96 116.187 91.1507C117.984 92.7772 118.604 95.3373 117.753 97.6062C120.689 98.8943 122.593 101.787 122.614 104.993C122.614 105.244 122.614 105.495 122.614 105.731L107.841 105.776Z" fill="#EB664E"/>
<path d="M121.137 113.162H107.841C107.024 113.162 106.364 112.502 106.364 111.685V105.776C106.364 104.959 107.024 104.298 107.841 104.298H122.614C123.069 104.298 123.499 104.508 123.778 104.867C124.057 105.225 124.158 105.693 124.047 106.133L122.57 112.042C122.404 112.7 121.814 113.162 121.137 113.162ZM109.318 110.207H119.983L120.721 107.253H109.318V110.207H109.318Z" fill="#1F4B43"/>
<path d="M22.159 105.776V91.5643C19.9683 89.1461 16.2321 88.96 13.8123 91.1507C12.016 92.7772 11.3954 95.3373 12.2465 97.6062C9.31109 98.8943 7.40705 101.787 7.38623 104.993C7.38623 105.244 7.38623 105.495 7.38623 105.731L22.159 105.776Z" fill="#EB664E"/>
<path d="M128.523 113.162H1.47723C0.66041 113.162 0 112.502 0 111.685C0 110.868 0.66041 110.208 1.47723 110.208H128.523C129.34 110.208 130 110.868 130 111.685C130 112.502 129.34 113.162 128.523 113.162Z" fill="#1F4B43"/>
<path d="M107.841 113.162H22.1594C21.3425 113.162 20.6821 112.502 20.6821 111.685V64.737C20.6821 63.9202 21.3425 63.2598 22.1594 63.2598C22.9762 63.2598 23.6366 63.9202 23.6366 64.737V110.208H106.364V64.737C106.364 63.9202 107.024 63.2598 107.841 63.2598C108.658 63.2598 109.318 63.9202 109.318 64.737V111.685C109.318 112.5 108.658 113.162 107.841 113.162Z" fill="#1F4B43"/>
<g opacity="0.06">
<path d="M75.341 107.253H22.1594C21.3425 107.253 20.6821 106.592 20.6821 105.776C20.6821 104.959 21.3425 104.298 22.1594 104.298H75.3413C76.1581 104.298 76.8185 104.959 76.8185 105.776C76.8183 106.592 76.1581 107.253 75.341 107.253Z" fill="#1F4B43"/>
<path d="M107.841 107.253H93.0681C92.2512 107.253 91.5908 106.592 91.5908 105.776C91.5908 104.959 92.2512 104.298 93.0681 104.298H107.841C108.658 104.298 109.318 104.959 109.318 105.776C109.318 106.592 108.658 107.253 107.841 107.253Z" fill="#1F4B43"/>
</g>
<path d="M22.1594 113.162H8.86385C8.18567 113.162 7.59635 112.7 7.4308 112.042L5.95358 106.133C5.84287 105.691 5.94164 105.225 6.22246 104.867C6.50176 104.508 6.93162 104.298 7.38662 104.298H22.1594C22.9762 104.298 23.6366 104.959 23.6366 105.776V111.685C23.6366 112.5 22.9762 113.162 22.1594 113.162ZM10.0176 110.207H20.6819V107.253H9.27899L10.0176 110.207Z" fill="#1F4B43"/>
<path d="M93.0682 113.162H75.341C74.5242 113.162 73.8638 112.502 73.8638 111.685V76.2302C73.8638 75.4133 74.5242 74.7529 75.341 74.7529H93.0682C93.885 74.7529 94.5455 75.4133 94.5455 76.2302V111.685C94.5457 112.5 93.8853 113.162 93.0682 113.162ZM76.8182 110.207H91.591V77.7074H76.8182V110.207Z" fill="#1F4B43"/>
<g opacity="0.12">
<path d="M101.932 122.026H62.0456C61.2288 122.026 60.5684 121.365 60.5684 120.549C60.5684 119.732 61.2288 119.071 62.0456 119.071H101.932C102.749 119.071 103.409 119.732 103.409 120.549C103.409 121.365 102.749 122.026 101.932 122.026Z" fill="#1F4B43"/>
</g>
<g opacity="0.12">
<path d="M53.1821 122.026H28.0685C27.2517 122.026 26.5913 121.365 26.5913 120.549C26.5913 119.732 27.2517 119.071 28.0685 119.071H53.1821C53.999 119.071 54.6594 119.732 54.6594 120.549C54.6594 121.365 53.999 122.026 53.1821 122.026Z" fill="#1F4B43"/>
</g>
<g opacity="0.06">
<path d="M66.4774 127.935H48.7502C47.9334 127.935 47.2729 127.274 47.2729 126.457C47.2729 125.641 47.9334 124.98 48.7502 124.98H66.4774C67.2942 124.98 67.9546 125.641 67.9546 126.457C67.9546 127.274 67.2945 127.935 66.4774 127.935Z" fill="#1F4B43"/>
</g>
<g opacity="0.06">
<path d="M39.8864 127.935H33.9772C33.1604 127.935 32.5 127.274 32.5 126.457C32.5 125.641 33.1604 124.98 33.9772 124.98H39.8864C40.7032 124.98 41.3636 125.641 41.3636 126.457C41.3636 127.274 40.7032 127.935 39.8864 127.935Z" fill="#1F4B43"/>
</g>
<g opacity="0.06">
<path d="M96.0229 127.935H75.341C74.5242 127.935 73.8638 127.274 73.8638 126.457C73.8638 125.641 74.5242 124.98 75.341 124.98H96.0229C96.8397 124.98 97.5002 125.641 97.5002 126.457C97.5002 127.274 96.8397 127.935 96.0229 127.935Z" fill="#1F4B43"/>
</g>
<path d="M73.8636 59.9801H56.1364C55.3196 59.9801 54.6592 59.3197 54.6592 58.5029V46.6848C54.6592 40.9841 59.2993 36.344 65 36.344C70.7007 36.344 75.3409 40.9841 75.3409 46.6848V58.5029C75.3409 59.3184 74.6807 59.9801 73.8636 59.9801ZM57.6136 57.0257H72.3864V46.6848C72.3864 42.6119 69.0729 39.2984 65 39.2984C60.9271 39.2984 57.6136 42.6119 57.6136 46.6848V57.0257Z" fill="#1F4B43"/>
<path d="M60.5682 101.344H36.9318C36.115 101.344 35.4546 100.683 35.4546 99.8665V76.2302C35.4546 75.4133 36.115 74.7529 36.9318 74.7529H60.5682C61.385 74.7529 62.0454 75.4133 62.0454 76.2302V99.8665C62.0457 100.682 61.3853 101.344 60.5682 101.344ZM38.4093 98.3893H59.0912V77.7074H38.4093V98.3893Z" fill="#1F4B43"/>
<path d="M87.1594 95.4346C86.759 95.4346 86.3898 95.2721 86.1105 94.9916C85.8431 94.7242 85.6821 94.3416 85.6821 93.9574C85.6821 93.557 85.8431 93.1878 86.1105 92.9085C86.6571 92.3619 87.6469 92.3619 88.2082 92.9085C88.4741 93.1878 88.6366 93.5733 88.6366 93.9574C88.6366 94.3416 88.4741 94.7255 88.2082 95.0063C87.9274 95.2709 87.5433 95.4346 87.1594 95.4346Z" fill="#1F4B43"/>
<path d="M118.182 77.7073C117.771 77.7073 117.369 77.5359 117.084 77.2183L65 19.3477L12.9157 77.2183C12.5064 77.6733 11.861 77.83 11.2876 77.6098C10.7174 77.3897 10.3408 76.8418 10.3408 76.2301C10.3393 68.2425 13.2805 60.5725 18.6225 54.6339L63.9008 4.33274C64.4607 3.7094 65.5362 3.7094 66.0961 4.33274L111.374 54.6339C116.716 60.574 119.658 68.2425 119.656 76.2301C119.656 76.8418 119.279 77.3897 118.708 77.6098C118.538 77.6748 118.359 77.7073 118.182 77.7073ZM65 7.52967L20.8193 56.609C16.9073 60.9566 14.4125 66.328 13.5923 72.0495L63.9023 16.1495C64.4622 15.5262 65.5378 15.5262 66.0976 16.1495L116.408 72.0495C115.588 66.328 113.093 60.9566 109.181 56.609L65 7.52967Z" fill="#1F4B43"/>
</svg>
