<svg width="200" height="155" viewBox="0 0 200 155" fill="none" xmlns="http://www.w3.org/2000/svg">
<path d="M96.306 151.554C137.597 151.554 171.07 118.081 171.07 76.7906C171.07 35.4999 137.597 2.0271 96.306 2.0271C55.0153 2.0271 21.5425 35.4999 21.5425 76.7906C21.5425 118.081 55.0153 151.554 96.306 151.554Z" fill="#FFF8F6"/>
<g filter="url(#filter0_di_118_2133)">
<path fill-rule="evenodd" clip-rule="evenodd" d="M125.656 85.821C125.656 82.3899 128.864 79.6041 130.651 76.6751C131.244 75.7028 131.586 74.5595 131.586 73.3372V29.8413C131.586 26.2962 128.712 23.4224 125.167 23.4224H25.3379C21.7928 23.4224 18.9189 26.2962 18.9189 29.8413V73.3372C18.9189 74.5595 19.2608 75.7028 19.8542 76.6751C21.6412 79.6048 24.8489 82.3899 24.8489 85.821V115.335V123.741C24.8489 124.184 24.8938 124.616 24.9793 125.035C25.5779 127.96 28.1659 130.16 31.2679 130.16H119.237C122.782 130.16 125.656 127.286 125.656 123.741V115.335V85.821Z" fill="#FF0000" fill-opacity="0.01"/>
</g>
<path d="M125.656 123.741C125.656 127.286 122.783 130.16 119.237 130.16H31.268C27.723 130.16 24.8491 127.286 24.8491 123.741V44.177H125.656V123.741Z" fill="white"/>
<path d="M24.8491 115.335H125.656V123.741C125.656 127.286 122.783 130.16 119.237 130.16H31.268C27.723 130.16 24.8491 127.286 24.8491 123.741V115.335Z" fill="#F6F6F6"/>
<path d="M87.1124 130.159V100.267C87.1124 93.8506 81.7218 88.6506 75.211 88.6506C68.7056 88.6506 63.4253 93.8506 63.4253 100.267V130.159H87.1124Z" fill="#E7C873"/>
<path opacity="0.8" d="M98.9715 88.3885C98.9715 86.8959 100.182 85.6858 101.674 85.6858H111.093C112.586 85.6858 113.796 86.8959 113.796 88.3885V106.703C113.796 108.195 112.586 109.405 111.093 109.405H101.674C100.182 109.405 98.9715 108.195 98.9715 106.703V88.3885ZM36.708 88.3885C36.708 86.8959 37.9181 85.6858 39.4107 85.6858H48.8299C50.3226 85.6858 51.5326 86.8959 51.5326 88.3885V106.703C51.5326 108.195 50.3226 109.405 48.8299 109.405H39.4107C37.9181 109.405 36.708 108.195 36.708 106.703V88.3885Z" fill="#B7B7B7"/>
<path d="M131.586 73.3372C131.586 76.8818 128.712 79.7561 125.167 79.7561H93.6588L75.2527 51.5357L56.8433 79.7561H25.3379C21.7928 79.7561 18.9189 76.8818 18.9189 73.3372V29.8413C18.9189 26.2962 21.7928 23.4224 25.3379 23.4224H125.167C128.712 23.4224 131.586 26.2962 131.586 29.8413V73.3372Z" fill="#E7C873"/>
<path d="M46.6973 79.7561H56.8402L72.4194 55.8735C73.7525 53.83 76.7457 53.8301 78.0788 55.8737L93.6558 79.7561H104.898L78.6248 39.6023C77.291 37.5642 74.3045 37.5642 72.9707 39.6023L46.6973 79.7561Z" fill="#C5A44E"/>
<g filter="url(#filter1_di_118_2133)">
<path fill-rule="evenodd" clip-rule="evenodd" d="M172.052 56.8645C171.363 57.6117 170.499 58.175 169.538 58.5034C169.109 58.6469 168.666 58.7403 168.216 58.7816V55.5005C168.628 55.4067 169.03 55.2775 169.42 55.1144C170.134 54.8155 170.797 54.4077 171.386 53.9055L172.052 56.8645ZM146.987 57.1309L144.911 57.3282L146.331 58.8558L145.879 60.8892L147.769 60.0107L149.565 61.0696L149.313 59.0008L150.875 57.6199L148.83 57.2203L147.999 55.3083L146.987 57.1309ZM152.689 110.015L153.213 109.759L153.22 109.757C153.465 109.671 153.701 109.556 153.92 109.415L154.166 109.296L154.136 109.265C154.218 109.203 154.298 109.136 154.375 109.066C154.986 108.455 155.268 107.574 155.25 106.488C159.909 108.288 163.988 111.389 166.978 115.458C167.194 114.492 167.41 113.535 167.626 112.58L167.871 111.495C165.241 108.249 161.873 105.681 158.048 104.004C156.843 103.476 155.603 103.04 154.34 102.701C153.146 99.7715 150.824 96.2607 147.645 92.7452C148.049 92.5567 148.455 92.3709 148.857 92.1864C152.276 90.6202 155.493 89.1465 156.051 86.829L156.893 83.3256C156.883 83.3621 156.872 83.3979 156.86 83.4337L156.888 83.3134C157.7 79.9337 156.003 77.4499 154.413 75.1215C153.494 73.7742 152.609 72.4783 152.267 71.0918C153.843 69.8499 156.869 70.7736 159.745 71.6506C162.995 72.6425 166.053 73.5756 166.609 71.2587L167.449 67.7641C166.89 70.0695 163.837 69.1384 160.592 68.1486C156.959 67.0405 153.084 65.8588 152.197 69.0594C152.211 68.981 152.228 68.9013 152.247 68.8215L151.404 72.3236C150.545 75.6114 152.211 78.0479 153.801 80.3756C154.748 81.7607 155.668 83.1073 156.015 84.5709C154.71 85.633 152.225 86.2418 149.55 86.8972L149.394 86.9357L149.781 85.6492C149.2 85.5513 148.641 85.3465 148.134 85.0452C147.237 84.4965 146.536 83.679 146.131 82.7087C145.506 83.7661 144.881 84.8229 144.256 85.8783C144.555 86.6675 145.043 87.3715 145.676 87.929C144.955 88.1526 144.255 88.3972 143.599 88.6742C141.588 86.8648 139.409 85.2506 137.09 83.8553C138.626 82.0905 139.901 80.4155 139.404 78.7357L138.565 76.533L138.562 76.5154C138.491 76.2553 138.397 76.0121 138.28 75.7837L138.133 75.3959C138.154 75.4675 138.172 75.5384 138.186 75.61C136.98 73.5134 133.917 72.781 131.036 72.0925C129.434 71.71 127.89 71.3405 126.751 70.758C127.668 69.033 129.967 67.5557 132.156 66.1491C134.889 64.3926 137.451 62.7463 136.936 60.8655L135.095 55.7179C135.61 57.5978 133.165 59.6377 130.557 61.8142C127.844 64.0784 124.953 66.4903 125.032 69.0242C125.018 68.9796 125.004 68.935 124.991 68.8898L125.039 69.1526C125.054 69.3621 125.089 69.5722 125.147 69.783L125.159 69.8134L125.63 72.41C126.145 74.2898 128.819 74.9276 131.672 75.6087C133.903 76.1418 136.245 76.7006 137.748 77.9006C137.199 78.9492 136.26 80.0148 135.288 81.1182C134.939 81.5141 134.586 81.9148 134.245 82.3215C131.066 80.9134 128.648 80.8276 127.391 82.0844C127.268 82.2073 127.159 82.3411 127.062 82.4851L127.051 82.4742L126.974 82.6263C126.915 82.7263 126.863 82.8303 126.815 82.9391C125.562 85.4222 124.299 88.0857 123.059 90.9209C122.211 92.8803 121.364 94.9134 120.541 97.0432C120.227 97.8283 119.928 98.6303 119.628 99.4411L119.627 99.4418C119.557 99.6296 119.487 99.8182 119.417 100.007C118.835 101.605 118.242 103.238 117.685 104.883C116.984 106.924 116.306 108.974 115.714 110.97L115.701 110.982C114.972 113.313 114.343 115.505 113.846 117.529C113.736 118.317 113.81 119.12 114.062 119.874C114.314 120.629 114.737 121.315 115.299 121.878C115.86 122.442 116.545 122.868 117.298 123.124C118.052 123.378 118.854 123.456 119.643 123.349C121.822 122.805 123.962 122.118 126.05 121.292C126.98 120.936 127.92 120.561 128.882 120.176H128.882C129.816 119.803 130.771 119.422 131.76 119.041C132.922 118.581 134.131 118.122 135.402 117.674C136.746 117.202 138.118 116.682 139.468 116.101C141.46 115.29 143.458 114.406 145.369 113.511C147.974 112.313 150.457 111.103 152.689 110.015ZM117.881 76.6357L120.249 75.9817L121.05 73.66L122.406 75.7087L124.861 75.754L123.332 77.6756L124.047 80.0249L121.746 79.1634L119.732 80.5695L119.841 78.1175L117.881 76.6357ZM164.984 101.222L163.016 100.534L163.665 102.513L162.402 104.172L164.488 104.165L165.673 105.879L166.312 103.895L168.309 103.296L166.619 102.075L166.665 99.9911L164.984 101.222ZM171.329 79.258L175.159 80.5972L178.431 78.2013L178.343 82.258L181.631 84.6337L177.745 85.7992L176.501 89.6621L174.195 86.3276L170.134 86.3405L172.593 83.1114L171.329 79.258ZM143.243 78.2357C143.879 77.9898 144.451 77.6006 144.912 77.0972L144.369 74.8526C143.43 75.4303 142.343 75.7182 141.241 75.681V78.5148C141.921 78.5776 142.606 78.4823 143.243 78.2357ZM119.496 60.0612C118.999 59.595 118.616 59.0205 118.377 58.3821L119.718 56.4954C120.136 57.066 120.658 57.5536 121.255 57.9336C121.586 58.1382 121.936 58.3077 122.302 58.4394L121.243 61.0696C120.591 60.8725 119.993 60.5274 119.496 60.0612ZM164.32 96.8107C163.632 97.56 162.768 98.1263 161.806 98.4573C161.378 98.6013 160.934 98.6945 160.484 98.7357V95.4465C161.653 95.179 162.74 94.6317 163.652 93.8513L164.32 96.8107ZM172.49 74.1161C173.508 75.1033 174.778 75.7905 176.161 76.1026L176.716 73.5479C176.048 73.3932 175.42 73.1006 174.872 72.6884C174.324 72.2769 173.868 71.7553 173.532 71.1573L172.49 74.1161Z" fill="#FF0000" fill-opacity="0.01"/>
</g>
<path d="M154.166 109.296C151.576 110.553 148.563 112.043 145.369 113.511C143.458 114.406 141.46 115.29 139.468 116.101C138.118 116.682 136.746 117.202 135.402 117.674C134.131 118.122 132.922 118.581 131.76 119.041C129.751 119.815 127.882 120.591 126.05 121.292C123.962 122.118 121.822 122.805 119.643 123.349C118.854 123.456 118.052 123.378 117.298 123.124C116.545 122.868 115.86 122.443 115.299 121.878C114.737 121.315 114.314 120.629 114.062 119.874C113.81 119.12 113.736 118.317 113.846 117.529C114.343 115.505 114.972 113.314 115.701 110.982L115.714 110.97C116.306 108.974 116.984 106.924 117.685 104.883C118.242 103.238 118.835 101.605 119.417 100.007C119.791 99.0041 120.153 98.0108 120.541 97.0433C121.364 94.9136 122.211 92.8805 123.059 90.921C124.377 87.9082 125.721 85.0892 127.051 82.4744C136.093 91.4102 145.132 100.351 154.166 109.296Z" fill="#E7C873"/>
<path d="M154.075 108.769C156.586 106.258 152.715 98.3149 145.428 91.0277C138.14 83.7406 130.198 79.8689 127.686 82.3804C125.175 84.8919 129.046 92.8351 136.334 100.122C143.62 107.409 151.563 111.28 154.075 108.769Z" fill="#C5A44E"/>
<path d="M151.887 109.943C148.158 109.943 141.947 106.332 136.037 100.42C128.472 92.8547 124.674 84.8007 127.391 82.0844C128.74 80.7358 131.426 80.9331 134.954 82.6513C138.952 84.754 142.589 87.4817 145.729 90.7304C153.293 98.2959 157.091 106.35 154.375 109.066C154.04 109.372 153.647 109.607 153.22 109.757C152.792 109.908 152.339 109.971 151.887 109.943ZM129.89 82.0392C129.546 82.0142 129.2 82.0588 128.873 82.1682C128.546 82.2784 128.244 82.452 127.985 82.6797C125.933 84.7317 128.919 92.1101 136.631 99.825C144.343 107.541 151.725 110.525 153.777 108.472C155.829 106.418 152.843 99.0392 145.131 91.3257C142.057 88.1439 138.496 85.4716 134.583 83.4094C133.135 82.6202 131.535 82.1527 129.89 82.0392Z" fill="#FF8080"/>
<path d="M144.912 57.3283L146.988 57.131L147.999 55.3083L148.83 57.2204L150.876 57.62L149.314 59.0008L149.565 61.0696L147.77 60.0108L145.88 60.8892L146.332 58.8558L144.912 57.3283Z" fill="#FFC01F"/>
<path d="M117.881 76.6358L120.249 75.9818L121.05 73.6602L122.406 75.7088L124.861 75.7541L123.332 77.6757L124.047 80.025L121.746 79.1642L119.733 80.5703L119.841 78.1176L117.881 76.6358Z" fill="#FFC01F"/>
<path d="M163.016 100.534L164.984 101.222L166.665 99.9912L166.619 102.075L168.309 103.296L166.312 103.895L165.673 105.879L164.488 104.166L162.402 104.172L163.665 102.514L163.016 100.534Z" fill="#FFC01F"/>
<path d="M171.33 79.2582L175.16 80.5974L178.432 78.2014L178.343 82.2582L181.632 84.6339L177.746 85.7994L176.502 89.6622L174.195 86.3278L170.135 86.3406L172.593 83.1115L171.33 79.2582Z" fill="#FFC01F"/>
<path d="M151.316 72.7048C152.843 66.3469 165.422 76.2035 166.609 71.2582L167.452 67.7548C166.272 72.7001 153.687 62.845 152.16 69.2028L151.316 72.7048Z" fill="#FFAA5B"/>
<path d="M156.047 86.8236C157.145 81.6986 149.784 78.5249 151.404 72.3236L152.247 68.8215C151.067 73.7668 158.415 76.9553 156.888 83.3134L156.047 86.8236Z" fill="#FFAA5B"/>
<path d="M140.033 99.2372C141.559 92.8791 154.86 91.7743 156.051 86.8291L156.893 83.3257C155.696 87.6196 140.707 86.2628 139.178 92.9595L140.033 99.2372Z" fill="#FFAA5B"/>
<path d="M145.883 101.853C144.026 102.056 142.203 102.494 140.458 103.157L140.472 103.168C141.128 103.659 141.543 103.98 141.744 104.133C142.019 104.342 142.418 104.639 142.941 104.986C144.787 104.752 146.653 104.721 148.505 104.893C149.495 104.993 150.478 105.143 151.452 105.342C157.683 106.72 163.199 110.316 166.978 115.458C167.276 114.126 167.574 112.809 167.871 111.495C165.241 108.249 161.873 105.681 158.048 104.004C154.222 102.327 150.051 101.589 145.883 101.853Z" fill="#FFAA5B"/>
<path d="M126.451 73.1217C125.008 67.8514 138.041 64.8971 136.936 60.8658L135.095 55.7183C136.199 59.7479 123.704 64.5127 125.147 69.7832L126.451 73.1217Z" fill="#FFAA5B"/>
<path d="M139.201 80.0345C137.758 74.7635 126.735 76.4399 125.63 72.4102L124.991 68.8899C126.094 72.921 137.119 71.25 138.562 76.5156L139.201 80.0345Z" fill="#FFAA5B"/>
<path d="M133.233 91.9683C131.684 86.7264 140.589 82.744 139.404 78.7359L138.133 75.396C139.313 79.4034 130.411 83.3879 131.96 88.6284L133.233 91.9683Z" fill="#FFAA5B"/>
<path d="M148.717 89.1844C147.613 89.106 146.562 88.6783 145.716 87.9641C145.063 87.4013 144.561 86.6844 144.256 85.8783C144.881 84.8229 145.506 83.7662 146.131 82.7087C146.536 83.679 147.237 84.4966 148.134 85.0452C148.641 85.3466 149.2 85.5513 149.781 85.6493L148.717 89.1844Z" fill="#B7B7B7"/>
<path d="M144.912 77.0972C144.451 77.6006 143.879 77.9904 143.243 78.2364C142.606 78.4823 141.921 78.5776 141.241 78.5154V75.681C142.343 75.7181 143.43 75.4303 144.369 74.8533L144.912 77.0972Z" fill="#B7B7B7"/>
<path d="M172.052 56.8645C171.364 57.6117 170.499 58.175 169.538 58.5034C169.11 58.6469 168.666 58.7403 168.216 58.7816V55.5005C168.628 55.4067 169.03 55.2775 169.42 55.1144C170.134 54.8155 170.797 54.4077 171.386 53.9055L172.052 56.8645Z" fill="#B7B7B7"/>
<path d="M118.377 58.3821C118.616 59.0204 118.999 59.595 119.496 60.0612C119.993 60.5274 120.591 60.8725 121.243 61.0696L122.302 58.4394C121.936 58.3077 121.586 58.1381 121.255 57.9335C120.658 57.5536 120.136 57.066 119.717 56.4954L118.377 58.3821Z" fill="#E9E9E9"/>
<path d="M164.32 96.8108C163.632 97.5601 162.767 98.1263 161.806 98.4581C161.378 98.6013 160.934 98.6946 160.484 98.7358V95.4466C161.653 95.179 162.74 94.6317 163.652 93.8513L164.32 96.8108Z" fill="#B7B7B7"/>
<path d="M176.162 76.102C174.779 75.7905 173.508 75.1034 172.491 74.1162L173.533 71.1567C173.868 71.7554 174.324 72.277 174.872 72.6885C175.42 73.1 176.048 73.3925 176.716 73.548L176.162 76.102Z" fill="#B7B7B7"/>
<defs>
<filter id="filter0_di_118_2133" x="1.63894" y="6.14236" width="147.227" height="141.297" filterUnits="userSpaceOnUse" color-interpolation-filters="sRGB">
<feFlood flood-opacity="0" result="BackgroundImageFix"/>
<feColorMatrix in="SourceAlpha" type="matrix" values="0 0 0 0 0 0 0 0 0 0 0 0 0 0 0 0 0 0 127 0" result="hardAlpha"/>
<feOffset/>
<feGaussianBlur stdDeviation="8.64"/>
<feComposite in2="hardAlpha" operator="out"/>
<feColorMatrix type="matrix" values="0 0 0 0 0 0 0 0 0 0 0 0 0 0 0 0 0 0 0.04 0"/>
<feBlend mode="normal" in2="BackgroundImageFix" result="effect1_dropShadow_118_2133"/>
<feBlend mode="normal" in="SourceGraphic" in2="effect1_dropShadow_118_2133" result="shape"/>
<feColorMatrix in="SourceAlpha" type="matrix" values="0 0 0 0 0 0 0 0 0 0 0 0 0 0 0 0 0 0 127 0" result="hardAlpha"/>
<feOffset dy="4.85375"/>
<feGaussianBlur stdDeviation="8.49406"/>
<feComposite in2="hardAlpha" operator="arithmetic" k2="-1" k3="1"/>
<feColorMatrix type="matrix" values="0 0 0 0 0.132391 0 0 0 0 0.13228 0 0 0 0 0.137836 0 0 0 0.04 0"/>
<feBlend mode="normal" in2="shape" result="effect2_innerShadow_118_2133"/>
</filter>
<filter id="filter1_di_118_2133" x="96.5164" y="36.6255" width="102.394" height="104.05" filterUnits="userSpaceOnUse" color-interpolation-filters="sRGB">
<feFlood flood-opacity="0" result="BackgroundImageFix"/>
<feColorMatrix in="SourceAlpha" type="matrix" values="0 0 0 0 0 0 0 0 0 0 0 0 0 0 0 0 0 0 127 0" result="hardAlpha"/>
<feOffset/>
<feGaussianBlur stdDeviation="8.64"/>
<feComposite in2="hardAlpha" operator="out"/>
<feColorMatrix type="matrix" values="0 0 0 0 0 0 0 0 0 0 0 0 0 0 0 0 0 0 0.09 0"/>
<feBlend mode="normal" in2="BackgroundImageFix" result="effect1_dropShadow_118_2133"/>
<feBlend mode="normal" in="SourceGraphic" in2="effect1_dropShadow_118_2133" result="shape"/>
<feColorMatrix in="SourceAlpha" type="matrix" values="0 0 0 0 0 0 0 0 0 0 0 0 0 0 0 0 0 0 127 0" result="hardAlpha"/>
<feOffset dy="4.85375"/>
<feGaussianBlur stdDeviation="8.49406"/>
<feComposite in2="hardAlpha" operator="arithmetic" k2="-1" k3="1"/>
<feColorMatrix type="matrix" values="0 0 0 0 0.132391 0 0 0 0 0.13228 0 0 0 0 0.137836 0 0 0 0.05 0"/>
<feBlend mode="normal" in2="shape" result="effect2_innerShadow_118_2133"/>
</filter>
</defs>
</svg>
