<svg width="200" height="155" viewBox="0 0 200 155" fill="none" xmlns="http://www.w3.org/2000/svg">
<g clip-path="url(#clip0_95_820)">
<mask id="mask0_95_820" style="mask-type:luminance" maskUnits="userSpaceOnUse" x="0" y="0" width="200" height="155">
<path d="M200 0H0V154.054H200V0Z" fill="white"/>
</mask>
<g mask="url(#mask0_95_820)">
<path d="M99.8927 153.843C141.183 153.843 174.656 120.37 174.656 79.0797C174.656 37.7889 141.183 4.31616 99.8927 4.31616C58.6019 4.31616 25.1292 37.7889 25.1292 79.0797C25.1292 120.37 58.6019 153.843 99.8927 153.843Z" fill="#FFF8F6"/>
<g filter="url(#filter0_d_95_820)">
<path d="M194.379 86.0298H5.40541C2.42008 86.0298 0 88.4499 0 91.4352V123.118C0 126.103 2.42008 128.524 5.40541 128.524H194.379C197.364 128.524 199.784 126.103 199.784 123.118V91.4352C199.784 88.4499 197.364 86.0298 194.379 86.0298Z" fill="#FF0000" fill-opacity="0.01"/>
</g>
<path d="M194.379 86.0298H5.40541C2.42008 86.0298 0 88.4499 0 91.4352V123.118C0 126.103 2.42008 128.524 5.40541 128.524H194.379C197.364 128.524 199.784 126.103 199.784 123.118V91.4352C199.784 88.4499 197.364 86.0298 194.379 86.0298Z" fill="white"/>
<path d="M24.8047 112.026L29.5549 116.777" stroke="#E7C873" stroke-width="5" stroke-linecap="round" stroke-linejoin="round"/>
<path d="M10.5542 105.919C10.5542 106.988 10.7648 108.047 11.1741 109.035C11.5833 110.024 12.1831 110.921 12.9393 111.677C13.6955 112.434 14.5932 113.033 15.5812 113.443C16.5691 113.852 17.6281 114.062 18.6974 114.062C19.7668 114.062 20.8257 113.852 21.8137 113.443C22.8016 113.033 23.6993 112.434 24.4555 111.677C25.2117 110.921 25.8115 110.024 26.2208 109.035C26.6299 108.047 26.8406 106.988 26.8406 105.919C26.8406 103.759 25.9826 101.688 24.4555 100.161C22.9284 98.6338 20.8571 97.7756 18.6974 97.7756C16.5377 97.7756 14.4664 98.6338 12.9393 100.161C11.4122 101.688 10.5542 103.759 10.5542 105.919Z" stroke="#E7C873" stroke-width="5" stroke-linecap="round" stroke-linejoin="round"/>
<path d="M163.993 104.616H43.824C42.3545 104.616 41.1633 105.807 41.1633 107.277C41.1633 108.746 42.3545 109.938 43.824 109.938H163.993C165.463 109.938 166.654 108.746 166.654 107.277C166.654 105.807 165.463 104.616 163.993 104.616Z" fill="#E9E9E9"/>
<g filter="url(#filter1_di_95_820)">
<path d="M118.834 0H80.9494C77.964 0 75.5439 2.42008 75.5439 5.40541V52.5013C75.5439 55.4866 77.964 57.9067 80.9494 57.9067H118.834C121.82 57.9067 124.24 55.4866 124.24 52.5013V5.40541C124.24 2.42008 121.82 0 118.834 0Z" fill="#FF0000" fill-opacity="0.01"/>
</g>
<path d="M118.834 0H80.9494C77.964 0 75.5439 2.42008 75.5439 5.40541V52.5013C75.5439 55.4866 77.964 57.9067 80.9494 57.9067H118.834C121.82 57.9067 124.24 55.4866 124.24 52.5013V5.40541C124.24 2.42008 121.82 0 118.834 0Z" fill="white"/>
<path opacity="0.7" d="M111.382 21.0061V36.1978C111.382 36.944 110.778 37.5491 110.031 37.5491H89.752C89.0054 37.5491 88.4006 36.944 88.4006 36.1978V21.0061L99.8919 9.08594L111.382 21.0061Z" fill="#E9E9E9"/>
<path d="M92.0655 37.5491V25.2809C92.0655 24.9078 92.3682 24.6052 92.7412 24.6052H97.7628C98.1364 24.6052 98.4385 24.9078 98.4385 25.2809V37.5491H92.0655ZM100.372 6.99737C100.108 6.72939 99.675 6.72939 99.4108 6.99737L85.0419 21.5519C84.781 21.8163 84.7824 22.2417 85.0452 22.5044L86.031 23.4907C86.2986 23.7582 86.7337 23.754 86.9959 23.4814L99.8918 10.0765L112.787 23.4814C113.049 23.754 113.484 23.7582 113.752 23.4907L114.737 22.5054C115 22.2424 115.001 21.8161 114.739 21.5519L111.382 18.1664V9.76156C111.382 9.38838 111.08 9.08588 110.707 9.08588H108.228C107.855 9.08588 107.552 9.38838 107.552 9.76156V14.27L100.372 6.99737Z" fill="#E7C873"/>
<path opacity="0.2" d="M95.5804 20.1146C95.1595 20.1146 94.8386 19.7296 94.9676 19.3294C96.4811 14.6308 103.269 14.6308 104.782 19.3294C104.912 19.7296 104.591 20.1146 104.17 20.1146H95.5804Z" fill="#8D8D91"/>
<path opacity="0.2" d="M101.343 25.2811C101.343 24.908 101.646 24.6055 102.019 24.6055H107.041C107.414 24.6055 107.716 24.908 107.716 25.2811V30.4017C107.716 30.7749 107.414 31.0774 107.041 31.0774H102.019C101.646 31.0774 101.343 30.7749 101.343 30.4017V25.2811Z" fill="#8D8D91"/>
<path opacity="0.4" d="M116.115 43.3718H83.6681C82.4789 43.3718 81.5149 44.3359 81.5149 45.525C81.5149 46.7142 82.4789 47.6783 83.6681 47.6783H116.115C117.304 47.6783 118.268 46.7142 118.268 45.525C118.268 44.3359 117.304 43.3718 116.115 43.3718Z" fill="#B7B7B7"/>
<path d="M121.086 63.7022C127.626 63.7022 132.928 58.4003 132.928 51.8595C132.928 45.3188 127.626 40.0168 121.086 40.0168C114.545 40.0168 109.243 45.3188 109.243 51.8595C109.243 58.4003 114.545 63.7022 121.086 63.7022Z" fill="#E7C873"/>
<path d="M118.965 49.5211L120.579 46.2706C120.626 46.1765 120.698 46.0974 120.788 46.0421C120.877 45.9868 120.98 45.9575 121.085 45.9575C121.19 45.9575 121.293 45.9868 121.383 46.0421C121.472 46.0974 121.544 46.1765 121.591 46.2706L123.205 49.5211L126.814 50.0455C126.918 50.0599 127.016 50.1033 127.097 50.1708C127.177 50.2382 127.237 50.3269 127.269 50.4268C127.303 50.5266 127.306 50.6337 127.281 50.7357C127.255 50.8377 127.202 50.9305 127.126 51.0035L124.516 53.5321L125.132 57.1044C125.211 57.5629 124.726 57.9121 124.312 57.6959L121.085 56.0085L117.857 57.6959C117.444 57.9127 116.959 57.5629 117.038 57.1038L117.655 53.5315L115.044 51.0029C114.969 50.9298 114.915 50.8371 114.89 50.7353C114.865 50.6335 114.869 50.5267 114.902 50.4271C114.934 50.3274 114.994 50.2389 115.074 50.1715C115.155 50.1041 115.253 50.0607 115.356 50.0461L118.965 49.5211Z" fill="white"/>
<g filter="url(#filter2_di_95_820)">
<path d="M187.627 18.7249H149.742C146.757 18.7249 144.336 21.1449 144.336 24.1303V71.2261C144.336 74.2115 146.757 76.6315 149.742 76.6315H187.627C190.612 76.6315 193.032 74.2115 193.032 71.2261V24.1303C193.032 21.1449 190.612 18.7249 187.627 18.7249Z" fill="#FF0000" fill-opacity="0.01"/>
</g>
<path d="M187.627 18.7249H149.742C146.757 18.7249 144.336 21.1449 144.336 24.1303V71.2261C144.336 74.2115 146.757 76.6315 149.742 76.6315H187.627C190.612 76.6315 193.032 74.2115 193.032 71.2261V24.1303C193.032 21.1449 190.612 18.7249 187.627 18.7249Z" fill="white"/>
<path opacity="0.6" d="M180.604 42.301V57.9496C180.604 58.6959 179.999 59.3009 179.253 59.3009H158.338C157.592 59.3009 156.987 58.6959 156.987 57.9496V42.301L168.795 30.0515L180.604 42.301Z" fill="#E9E9E9"/>
<path d="M160.753 59.301V46.6753C160.753 46.3022 161.056 45.9996 161.429 45.9996H166.626C166.999 45.9996 167.302 46.3022 167.302 46.6753V59.301H160.753ZM169.276 27.8919C169.012 27.6239 168.579 27.6239 168.314 27.8919L153.522 42.8751C153.261 43.1395 153.262 43.5649 153.525 43.8276L154.566 44.8678C154.833 45.1353 155.268 45.1311 155.53 44.8585L168.795 31.0695L182.06 44.8585C182.322 45.1311 182.757 45.1353 183.024 44.8678L184.064 43.8287C184.327 43.5656 184.328 43.1393 184.066 42.8751L180.604 39.3828V30.7272C180.604 30.3541 180.301 30.0516 179.928 30.0516H177.343C176.97 30.0516 176.667 30.3541 176.667 30.7272V35.3789L169.276 27.8919Z" fill="#B7B7B7"/>
<path opacity="0.31" d="M164.343 41.3846C163.922 41.3846 163.601 40.9998 163.729 40.599C165.272 35.7424 172.284 35.7424 173.828 40.599C173.955 40.9998 173.635 41.3846 173.214 41.3846H164.343Z" fill="#B7B7B7"/>
<path opacity="0.31" d="M170.287 46.6754C170.287 46.3023 170.59 45.9998 170.963 45.9998H176.161C176.534 45.9998 176.836 46.3023 176.836 46.6754V51.9748C176.836 52.3479 176.534 52.6504 176.161 52.6504H170.963C170.59 52.6504 170.287 52.3479 170.287 51.9748V46.6754Z" fill="#B7B7B7"/>
<path opacity="0.3" d="M185.128 64.1863H152.682C151.492 64.1863 150.528 65.1503 150.528 66.3395C150.528 67.5287 151.492 68.4927 152.682 68.4927H185.128C186.318 68.4927 187.282 67.5287 187.282 66.3395C187.282 65.1503 186.318 64.1863 185.128 64.1863Z" fill="#B7B7B7"/>
<g filter="url(#filter3_di_95_820)">
<path d="M50.0419 18.7249H12.1569C9.17155 18.7249 6.75146 21.1449 6.75146 24.1303V71.2261C6.75146 74.2115 9.17155 76.6315 12.1569 76.6315H50.0419C53.0272 76.6315 55.4473 74.2115 55.4473 71.2261V24.1303C55.4473 21.1449 53.0272 18.7249 50.0419 18.7249Z" fill="#FF0000" fill-opacity="0.01"/>
</g>
<path d="M50.0419 18.7249H12.1569C9.17155 18.7249 6.75146 21.1449 6.75146 24.1303V71.2261C6.75146 74.2115 9.17155 76.6315 12.1569 76.6315H50.0419C53.0272 76.6315 55.4473 74.2115 55.4473 71.2261V24.1303C55.4473 21.1449 53.0272 18.7249 50.0419 18.7249Z" fill="white"/>
<path opacity="0.6" d="M42.89 40.9317V56.5552C42.89 57.3015 42.285 57.9065 41.5387 57.9065H20.6597C19.9133 57.9065 19.3083 57.3015 19.3083 56.5552V40.9317L31.0992 28.7004L42.89 40.9317Z" fill="#E9E9E9"/>
<path d="M23.0694 57.9066V45.3005C23.0694 44.9274 23.3719 44.6249 23.7451 44.6249H28.9329C29.3061 44.6249 29.6086 44.9274 29.6086 45.3005V57.9066H23.0694ZM31.5802 26.5447C31.3157 26.2768 30.8831 26.2768 30.6185 26.5447L15.8499 41.5043C15.5889 41.7687 15.5903 42.1941 15.8529 42.4568L16.8901 43.494C17.1576 43.7615 17.5926 43.7573 17.8549 43.4847L31.0994 29.7169L44.3439 43.4847C44.6061 43.7573 45.0411 43.7615 45.3086 43.494L46.3448 42.4578C46.6078 42.1947 46.6088 41.7685 46.3468 41.5043L42.8903 38.0179V29.3761C42.8903 29.003 42.5877 28.7004 42.2146 28.7004H39.6356C39.2624 28.7004 38.9599 29.003 38.9599 29.3761V34.0199L31.5802 26.5447Z" fill="#B7B7B7"/>
<path opacity="0.31" d="M26.654 40.0171C26.2334 40.0171 25.9128 39.6322 26.0402 39.2314C27.5823 34.3835 34.5817 34.3835 36.1238 39.2314C36.2513 39.6322 35.9306 40.0171 35.51 40.0171H26.654Z" fill="#B7B7B7"/>
<path opacity="0.31" d="M32.5894 45.3007C32.5894 44.9275 32.8919 44.625 33.265 44.625H38.4529C38.826 44.625 39.1285 44.9275 39.1285 45.3007V50.5902C39.1285 50.9633 38.826 51.2659 38.4529 51.2659H33.265C32.8919 51.2659 32.5894 50.9633 32.5894 50.5902V45.3007Z" fill="#B7B7B7"/>
<path opacity="0.3" d="M47.3225 64.1863H14.8756C13.6864 64.1863 12.7224 65.1503 12.7224 66.3395C12.7224 67.5287 13.6864 68.4927 14.8756 68.4927H47.3225C48.5117 68.4927 49.4757 67.5287 49.4757 66.3395C49.4757 65.1503 48.5117 64.1863 47.3225 64.1863Z" fill="#B7B7B7"/>
</g>
</g>
<defs>
<filter id="filter0_d_95_820" x="-19" y="72.0298" width="237.784" height="80.4939" filterUnits="userSpaceOnUse" color-interpolation-filters="sRGB">
<feFlood flood-opacity="0" result="BackgroundImageFix"/>
<feColorMatrix in="SourceAlpha" type="matrix" values="0 0 0 0 0 0 0 0 0 0 0 0 0 0 0 0 0 0 127 0" result="hardAlpha"/>
<feOffset dy="5"/>
<feGaussianBlur stdDeviation="9.5"/>
<feComposite in2="hardAlpha" operator="out"/>
<feColorMatrix type="matrix" values="0 0 0 0 0.132391 0 0 0 0 0.13228 0 0 0 0 0.137836 0 0 0 0.07 0"/>
<feBlend mode="normal" in2="BackgroundImageFix" result="effect1_dropShadow_95_820"/>
<feBlend mode="normal" in="SourceGraphic" in2="effect1_dropShadow_95_820" result="shape"/>
</filter>
<filter id="filter1_di_95_820" x="70.5439" y="-5" width="58.6958" height="67.9067" filterUnits="userSpaceOnUse" color-interpolation-filters="sRGB">
<feFlood flood-opacity="0" result="BackgroundImageFix"/>
<feColorMatrix in="SourceAlpha" type="matrix" values="0 0 0 0 0 0 0 0 0 0 0 0 0 0 0 0 0 0 127 0" result="hardAlpha"/>
<feOffset/>
<feGaussianBlur stdDeviation="2.5"/>
<feComposite in2="hardAlpha" operator="out"/>
<feColorMatrix type="matrix" values="0 0 0 0 0 0 0 0 0 0 0 0 0 0 0 0 0 0 0.05 0"/>
<feBlend mode="normal" in2="BackgroundImageFix" result="effect1_dropShadow_95_820"/>
<feBlend mode="normal" in="SourceGraphic" in2="effect1_dropShadow_95_820" result="shape"/>
<feColorMatrix in="SourceAlpha" type="matrix" values="0 0 0 0 0 0 0 0 0 0 0 0 0 0 0 0 0 0 127 0" result="hardAlpha"/>
<feOffset dy="5"/>
<feGaussianBlur stdDeviation="9.5"/>
<feComposite in2="hardAlpha" operator="arithmetic" k2="-1" k3="1"/>
<feColorMatrix type="matrix" values="0 0 0 0 0.132391 0 0 0 0 0.13228 0 0 0 0 0.137836 0 0 0 0.07 0"/>
<feBlend mode="normal" in2="shape" result="effect2_innerShadow_95_820"/>
</filter>
<filter id="filter2_di_95_820" x="138.336" y="12.7249" width="60.6958" height="69.9067" filterUnits="userSpaceOnUse" color-interpolation-filters="sRGB">
<feFlood flood-opacity="0" result="BackgroundImageFix"/>
<feColorMatrix in="SourceAlpha" type="matrix" values="0 0 0 0 0 0 0 0 0 0 0 0 0 0 0 0 0 0 127 0" result="hardAlpha"/>
<feOffset/>
<feGaussianBlur stdDeviation="3"/>
<feComposite in2="hardAlpha" operator="out"/>
<feColorMatrix type="matrix" values="0 0 0 0 0 0 0 0 0 0 0 0 0 0 0 0 0 0 0.04 0"/>
<feBlend mode="normal" in2="BackgroundImageFix" result="effect1_dropShadow_95_820"/>
<feBlend mode="normal" in="SourceGraphic" in2="effect1_dropShadow_95_820" result="shape"/>
<feColorMatrix in="SourceAlpha" type="matrix" values="0 0 0 0 0 0 0 0 0 0 0 0 0 0 0 0 0 0 127 0" result="hardAlpha"/>
<feOffset dy="4"/>
<feGaussianBlur stdDeviation="7"/>
<feComposite in2="hardAlpha" operator="arithmetic" k2="-1" k3="1"/>
<feColorMatrix type="matrix" values="0 0 0 0 0.132391 0 0 0 0 0.13228 0 0 0 0 0.137836 0 0 0 0.04 0"/>
<feBlend mode="normal" in2="shape" result="effect2_innerShadow_95_820"/>
</filter>
<filter id="filter3_di_95_820" x="0.751465" y="12.7249" width="60.6958" height="69.9067" filterUnits="userSpaceOnUse" color-interpolation-filters="sRGB">
<feFlood flood-opacity="0" result="BackgroundImageFix"/>
<feColorMatrix in="SourceAlpha" type="matrix" values="0 0 0 0 0 0 0 0 0 0 0 0 0 0 0 0 0 0 127 0" result="hardAlpha"/>
<feOffset/>
<feGaussianBlur stdDeviation="3"/>
<feComposite in2="hardAlpha" operator="out"/>
<feColorMatrix type="matrix" values="0 0 0 0 0 0 0 0 0 0 0 0 0 0 0 0 0 0 0.04 0"/>
<feBlend mode="normal" in2="BackgroundImageFix" result="effect1_dropShadow_95_820"/>
<feBlend mode="normal" in="SourceGraphic" in2="effect1_dropShadow_95_820" result="shape"/>
<feColorMatrix in="SourceAlpha" type="matrix" values="0 0 0 0 0 0 0 0 0 0 0 0 0 0 0 0 0 0 127 0" result="hardAlpha"/>
<feOffset dy="4"/>
<feGaussianBlur stdDeviation="7"/>
<feComposite in2="hardAlpha" operator="arithmetic" k2="-1" k3="1"/>
<feColorMatrix type="matrix" values="0 0 0 0 0.132391 0 0 0 0 0.13228 0 0 0 0 0.137836 0 0 0 0.04 0"/>
<feBlend mode="normal" in2="shape" result="effect2_innerShadow_95_820"/>
</filter>
<clipPath id="clip0_95_820">
<rect width="200" height="154.054" fill="white"/>
</clipPath>
</defs>
</svg>
