<svg width="200" height="155" viewBox="0 0 200 155" fill="none" xmlns="http://www.w3.org/2000/svg">
<g clip-path="url(#clip0_118_2073)">
<path d="M99.0877 151.554C140.378 151.554 173.851 118.081 173.851 76.7906C173.851 35.4999 140.378 2.0271 99.0877 2.0271C57.797 2.0271 24.3242 35.4999 24.3242 76.7906C24.3242 118.081 57.797 151.554 99.0877 151.554Z" fill="#FFF8F6"/>
<g filter="url(#filter0_d_118_2073)">
<path d="M139.959 20.1426H36.0118C32.4529 20.1426 29.5679 23.0276 29.5679 26.5865V124.243C29.5679 127.801 32.4529 130.686 36.0118 130.686H139.959C143.518 130.686 146.403 127.801 146.403 124.243V26.5865C146.403 23.0276 143.518 20.1426 139.959 20.1426Z" fill="white"/>
</g>
<path d="M62.6489 62.417H49.6191C46.6309 62.417 44.2085 64.8394 44.2085 67.8276V80.8574C44.2085 83.8455 46.6309 86.2679 49.6191 86.2679H62.6489C65.637 86.2679 68.0594 83.8455 68.0594 80.8574V67.8276C68.0594 64.8394 65.637 62.417 62.6489 62.417Z" fill="#E9E9E9"/>
<path d="M62.6484 92.8953H49.6186C46.6304 92.8953 44.208 95.3177 44.208 98.3058V111.336C44.208 114.324 46.6304 116.746 49.6186 116.746H62.6484C65.6366 116.746 68.059 114.324 68.059 111.336V98.3058C68.059 95.3177 65.6366 92.8953 62.6484 92.8953Z" fill="#E9E9E9"/>
<path d="M95.0251 62.417H81.985C78.9997 62.417 76.5796 64.8371 76.5796 67.8224V80.8625C76.5796 83.8479 78.9997 86.2679 81.985 86.2679H95.0251C98.0105 86.2679 100.431 83.8479 100.431 80.8625V67.8224C100.431 64.8371 98.0105 62.417 95.0251 62.417Z" fill="#E7C873"/>
<path d="M95.02 92.8953H81.9902C79.002 92.8953 76.5796 95.3177 76.5796 98.3058V111.336C76.5796 114.324 79.002 116.746 81.9902 116.746H95.02C98.0081 116.746 100.431 114.324 100.431 111.336V98.3058C100.431 95.3177 98.0081 92.8953 95.02 92.8953Z" fill="#E9E9E9"/>
<path d="M127.393 62.417H114.363C111.375 62.417 108.952 64.8394 108.952 67.8276V80.8574C108.952 83.8455 111.375 86.2679 114.363 86.2679H127.393C130.381 86.2679 132.803 83.8455 132.803 80.8574V67.8276C132.803 64.8394 130.381 62.417 127.393 62.417Z" fill="#E9E9E9"/>
<path d="M127.393 92.8953H114.363C111.375 92.8953 108.952 95.3177 108.952 98.3058V111.336C108.952 114.324 111.375 116.746 114.363 116.746H127.393C130.381 116.746 132.803 114.324 132.803 111.336V98.3058C132.803 95.3177 130.381 92.8953 127.393 92.8953Z" fill="#E9E9E9"/>
<path d="M29.5679 26.5867C29.5679 23.0279 32.4529 20.1428 36.0118 20.1428H139.959C143.518 20.1428 146.403 23.0279 146.403 26.5867V48.9406H29.5679V26.5867Z" fill="#E7C873"/>
<path d="M61.023 9.40063H61.023C58.703 9.40063 56.8223 11.2814 56.8223 13.6014V30.9548C56.8223 33.2748 58.703 35.1555 61.023 35.1555H61.023C63.343 35.1555 65.2238 33.2748 65.2238 30.9548V13.6014C65.2238 11.2814 63.343 9.40063 61.023 9.40063Z" fill="#616066"/>
<path d="M114.95 9.40063H114.95C112.63 9.40063 110.75 11.2814 110.75 13.6014V30.9548C110.75 33.2748 112.63 35.1555 114.95 35.1555H114.95C117.27 35.1555 119.151 33.2748 119.151 30.9548V13.6014C119.151 11.2814 117.27 9.40063 114.95 9.40063Z" fill="#616066"/>
<g filter="url(#filter1_di_118_2073)">
<path d="M169.673 41.7612H131.186C127.564 41.7612 124.627 44.6978 124.627 48.3204V100.365C124.627 103.987 127.564 106.924 131.186 106.924H169.673C173.295 106.924 176.232 103.987 176.232 100.365V48.3204C176.232 44.6978 173.295 41.7612 169.673 41.7612Z" fill="#FF0000" fill-opacity="0.01"/>
</g>
<path d="M169.673 41.7612H131.186C127.564 41.7612 124.627 44.6978 124.627 48.3204V100.365C124.627 103.987 127.564 106.924 131.186 106.924H169.673C173.295 106.924 176.232 103.987 176.232 100.365V48.3204C176.232 44.6978 173.295 41.7612 169.673 41.7612Z" fill="white"/>
<path opacity="0.4" d="M164.587 82.1257H136.272C134.824 82.1257 133.65 83.2996 133.65 84.7476C133.65 86.1956 134.824 87.3695 136.272 87.3695H164.587C166.036 87.3695 167.209 86.1956 167.209 84.7476C167.209 83.2996 166.036 82.1257 164.587 82.1257Z" fill="#B7B7B7"/>
<path opacity="0.4" d="M164.587 91.7324H136.272C134.824 91.7324 133.65 92.9063 133.65 94.3543C133.65 95.8023 134.824 96.9762 136.272 96.9762H164.587C166.036 96.9762 167.209 95.8023 167.209 94.3543C167.209 92.9063 166.036 91.7324 164.587 91.7324Z" fill="#B7B7B7"/>
<path d="M150.429 77.7628C158.388 77.7628 164.84 71.3107 164.84 63.3515C164.84 55.3924 158.388 48.9402 150.429 48.9402C142.47 48.9402 136.018 55.3924 136.018 63.3515C136.018 71.3107 142.47 77.7628 150.429 77.7628Z" fill="#F6F6F6"/>
<mask id="mask0_118_2073" style="mask-type:alpha" maskUnits="userSpaceOnUse" x="136" y="48" width="29" height="30">
<path d="M150.429 77.7628C158.388 77.7628 164.84 71.3107 164.84 63.3515C164.84 55.3924 158.388 48.9402 150.429 48.9402C142.47 48.9402 136.018 55.3924 136.018 63.3515C136.018 71.3107 142.47 77.7628 150.429 77.7628Z" fill="#F6F6F6"/>
</mask>
<g mask="url(#mask0_118_2073)">
<path d="M151.099 67.3105H149.759C145.319 67.3105 141.719 71.0547 141.719 75.6723C141.719 76.827 142.619 77.7628 143.729 77.7628H157.13C158.24 77.7628 159.14 76.827 159.14 75.6723C159.14 71.0547 155.54 67.3105 151.099 67.3105Z" fill="#E7C873"/>
<path d="M153.241 53.4212C152.805 53.3061 152.351 53.2681 151.899 53.2681H150.343L148.375 53.5331C146.06 53.6846 144.197 55.4932 143.977 57.8028L143.468 63.1483C143.38 64.0779 144.111 64.882 145.045 64.882H156.343C157.276 64.882 158.007 64.0779 157.919 63.1483L157.468 58.4067C157.238 55.9968 155.526 54.0256 153.241 53.4212Z" fill="#1A1A1A"/>
<path d="M150.694 54.324C153.901 54.324 156.501 56.9239 156.501 60.1309C156.501 63.338 153.901 65.9379 150.694 65.9379C147.487 65.9379 144.888 63.338 144.888 60.1309C144.888 56.9239 147.487 54.324 150.694 54.324Z" fill="white"/>
<path d="M154.389 54.324L152.277 53.7961H151.75H149.345C146.591 53.7961 144.358 56.0286 144.358 58.7822V60.1309H146.471C149.118 60.1309 151.346 58.8857 152.046 56.4631C153.414 56.602 154.525 57.6657 154.681 59.0588L154.684 59.0878C154.817 60.283 155.826 61.1867 157.029 61.1867V56.9636L154.389 54.324Z" fill="#1A1A1A"/>
<path d="M143.708 60.6177L151.045 55.7515L152.805 56.4356V54.8519C152.805 53.3944 151.623 52.2124 150.165 52.2124H149.788C146.793 52.2124 144.29 54.4898 144.007 57.4708L143.708 60.6177Z" fill="#1A1A1A"/>
</g>
</g>
<defs>
<filter id="filter0_d_118_2073" x="6.91767" y="3.45298" width="162.135" height="155.844" filterUnits="userSpaceOnUse" color-interpolation-filters="sRGB">
<feFlood flood-opacity="0" result="BackgroundImageFix"/>
<feColorMatrix in="SourceAlpha" type="matrix" values="0 0 0 0 0 0 0 0 0 0 0 0 0 0 0 0 0 0 127 0" result="hardAlpha"/>
<feOffset dy="5.9606"/>
<feGaussianBlur stdDeviation="11.3251"/>
<feComposite in2="hardAlpha" operator="out"/>
<feColorMatrix type="matrix" values="0 0 0 0 0.132391 0 0 0 0 0.13228 0 0 0 0 0.137836 0 0 0 0.07 0"/>
<feBlend mode="normal" in2="BackgroundImageFix" result="effect1_dropShadow_118_2073"/>
<feBlend mode="normal" in="SourceGraphic" in2="effect1_dropShadow_118_2073" result="shape"/>
</filter>
<filter id="filter1_di_118_2073" x="117.346" y="34.4806" width="66.1662" height="79.7238" filterUnits="userSpaceOnUse" color-interpolation-filters="sRGB">
<feFlood flood-opacity="0" result="BackgroundImageFix"/>
<feColorMatrix in="SourceAlpha" type="matrix" values="0 0 0 0 0 0 0 0 0 0 0 0 0 0 0 0 0 0 127 0" result="hardAlpha"/>
<feOffset/>
<feGaussianBlur stdDeviation="3.64031"/>
<feComposite in2="hardAlpha" operator="out"/>
<feColorMatrix type="matrix" values="0 0 0 0 0 0 0 0 0 0 0 0 0 0 0 0 0 0 0.04 0"/>
<feBlend mode="normal" in2="BackgroundImageFix" result="effect1_dropShadow_118_2073"/>
<feBlend mode="normal" in="SourceGraphic" in2="effect1_dropShadow_118_2073" result="shape"/>
<feColorMatrix in="SourceAlpha" type="matrix" values="0 0 0 0 0 0 0 0 0 0 0 0 0 0 0 0 0 0 127 0" result="hardAlpha"/>
<feOffset dy="4.85375"/>
<feGaussianBlur stdDeviation="8.49406"/>
<feComposite in2="hardAlpha" operator="arithmetic" k2="-1" k3="1"/>
<feColorMatrix type="matrix" values="0 0 0 0 0.132391 0 0 0 0 0.13228 0 0 0 0 0.137836 0 0 0 0.04 0"/>
<feBlend mode="normal" in2="shape" result="effect2_innerShadow_118_2073"/>
</filter>
<clipPath id="clip0_118_2073">
<rect width="200" height="154.054" fill="white"/>
</clipPath>
</defs>
</svg>
