<svg width="130" height="131" viewBox="0 0 130 131" fill="none" xmlns="http://www.w3.org/2000/svg">
<path d="M117.814 113.611C117.74 113.611 117.664 113.606 117.589 113.592C116.852 113.469 116.353 112.772 116.476 112.034C117.264 107.306 123.756 104.37 124.032 104.249C124.717 103.944 125.515 104.253 125.818 104.935C126.123 105.618 125.817 106.418 125.134 106.723C123.623 107.398 119.603 109.749 119.148 112.479C119.038 113.142 118.464 113.611 117.814 113.611Z" fill="#EB664E"/>
<path d="M117.812 113.611C117.723 113.611 117.632 113.603 117.541 113.584C117.049 113.484 116.652 113.117 116.511 112.633C115.49 109.107 116.774 105.256 119.705 103.05C120.304 102.599 121.153 102.722 121.601 103.317C122.051 103.914 121.931 104.763 121.334 105.213C119.907 106.287 119.042 107.92 118.894 109.644C121.441 108.214 124.42 108.193 124.583 108.193C125.33 108.193 125.937 108.8 125.937 109.548C125.937 110.295 125.333 110.9 124.585 110.902C124.546 110.902 120.627 110.945 118.861 113.112C118.602 113.431 118.214 113.611 117.812 113.611Z" fill="#EB664E"/>
<path d="M13.5431 112.257C13.4334 112.257 13.3237 112.245 13.2128 112.217C12.4868 112.035 12.0468 111.3 12.2268 110.574C13.405 105.864 9.784 100.93 9.74744 100.88C9.30183 100.281 9.42371 99.4321 10.0224 98.9852C10.6183 98.5396 11.4674 98.6574 11.9155 99.2562C12.0971 99.4986 16.3477 105.258 14.854 111.231C14.7009 111.846 14.1497 112.257 13.5431 112.257Z" fill="#EB664E"/>
<path d="M116.457 112.257C115.85 112.257 115.299 111.847 115.145 111.232C113.651 105.259 117.902 99.4997 118.083 99.2572C118.533 98.6587 119.379 98.5409 119.976 98.9863C120.575 99.4331 120.697 100.282 120.251 100.881C120.215 100.931 116.594 105.865 117.772 110.575C117.953 111.301 117.512 112.036 116.786 112.218C116.676 112.244 116.567 112.257 116.457 112.257Z" fill="#EB664E"/>
<path d="M12.1863 113.611C11.5363 113.611 10.9622 113.141 10.8525 112.481C10.3975 109.751 6.37693 107.4 4.86568 106.724C4.18318 106.418 3.87722 105.619 4.18191 104.937C4.48533 104.254 5.28158 103.943 5.96814 104.25C6.24439 104.372 12.7375 107.308 13.5244 112.035C13.6475 112.773 13.1494 113.47 12.4113 113.594C12.3351 113.605 12.2594 113.611 12.1863 113.611Z" fill="#EB664E"/>
<path d="M12.1875 113.611C11.784 113.611 11.3953 113.431 11.1353 113.109C9.38306 110.945 5.4531 110.903 5.41247 110.903C4.66624 110.899 4.06245 110.292 4.06372 109.545C4.06499 108.799 4.67031 108.195 5.41654 108.195C5.57904 108.195 8.56091 108.216 11.1053 109.642C10.9563 107.92 10.0909 106.287 8.66501 105.214C8.06782 104.765 7.94874 103.915 8.39816 103.318C8.8463 102.722 9.69536 102.6 10.2941 103.051C13.2259 105.257 14.5097 109.11 13.4885 112.635C13.3476 113.118 12.951 113.485 12.4566 113.585C12.3662 113.602 12.2768 113.611 12.1875 113.611Z" fill="#EB664E"/>
<path d="M97.5 79.7529H81.25V112.253H97.5V79.7529Z" fill="#E7C873"/>
<g opacity="0.06">
<path d="M65 31.0059L10.8334 61.9484C9.15561 62.9181 8.12247 64.7096 8.125 66.6474V71.6309L65 39.1309V31.0059Z" fill="#1F4B43"/>
</g>
<g opacity="0.06">
<path d="M63.8897 6.63093L119.167 38.9144C120.841 39.8812 121.874 41.6659 121.875 43.5997V48.61L56.875 10.6934C56.8641 8.11375 58.9456 6.01217 61.5266 6.00125C62.3566 5.99845 63.1719 6.21504 63.8897 6.63093Z" fill="#1F4B43"/>
</g>
<path d="M128.646 113.611H1.35408C0.606582 113.611 0 113.005 0 112.257C0 111.51 0.606582 110.903 1.35408 110.903H128.646C129.393 110.903 130 111.51 130 112.257C130 113.005 129.393 113.611 128.646 113.611Z" fill="#1F4B43"/>
<path d="M65.0001 113.611H16.2501C15.5026 113.611 14.896 113.005 14.896 112.257V66.9874C14.896 66.24 15.5026 65.6334 16.2501 65.6334C16.9976 65.6334 17.6042 66.24 17.6042 66.9874V110.903H63.6457V39.1322C63.6457 38.3847 64.2523 37.7781 64.9998 37.7781C65.7473 37.7781 66.3539 38.3847 66.3539 39.1322V112.257C66.3542 113.005 65.7476 113.611 65.0001 113.611Z" fill="#1F4B43"/>
<path d="M97.5001 113.611H81.2501C80.5026 113.611 79.896 113.005 79.896 112.257V79.7572C79.896 79.0097 80.5026 78.4031 81.2501 78.4031H97.5001C98.2476 78.4031 98.8542 79.0097 98.8542 79.7572V112.257C98.8542 113.005 98.2476 113.611 97.5001 113.611ZM82.6042 110.903H96.1457V81.1112H82.6042V110.903Z" fill="#1F4B43"/>
<path d="M92.0833 97.3532C91.7177 97.3532 91.3793 97.2178 91.1218 96.9604C90.878 96.7166 90.729 96.3645 90.729 95.9988C90.729 95.6467 90.878 95.2948 91.1218 95.051C91.6228 94.5501 92.5437 94.5501 93.0446 95.051C93.2884 95.2948 93.4374 95.6469 93.4374 95.9988C93.4374 96.3645 93.2884 96.7166 93.0446 96.9604C92.7874 97.2178 92.449 97.3532 92.0833 97.3532Z" fill="#1F4B43"/>
<path d="M48.7501 97.3612H32.5001C31.7526 97.3612 31.146 96.7547 31.146 96.0072V79.7572C31.146 79.0097 31.7526 78.4031 32.5001 78.4031H48.7501C49.4976 78.4031 50.1042 79.0097 50.1042 79.7572V96.0072C50.1042 96.7547 49.4976 97.3612 48.7501 97.3612ZM33.8542 94.6531H47.3957V81.1115H33.8542V94.6531Z" fill="#1F4B43"/>
<path d="M89.3751 64.8612C84.1479 64.8612 79.896 60.6091 79.896 55.3822C79.896 50.1552 84.1482 45.9031 89.3751 45.9031C94.602 45.9031 98.8542 50.1552 98.8542 55.3822C98.8542 60.6091 94.6022 64.8612 89.3751 64.8612ZM89.3751 48.6112C85.6416 48.6112 82.6042 51.6487 82.6042 55.3822C82.6042 59.1156 85.6416 62.1531 89.3751 62.1531C93.1085 62.1531 96.146 59.1156 96.146 55.3822C96.146 51.6487 93.1085 48.6112 89.3751 48.6112Z" fill="#1F4B43"/>
<path d="M8.12508 72.9863C7.89073 72.9863 7.6551 72.9253 7.44538 72.8035C7.02821 72.561 6.771 72.1141 6.771 71.6322V66.6488C6.76821 64.2356 8.06567 61.985 10.1563 60.7772L64.3285 29.8319C64.7482 29.5909 65.2616 29.5934 65.68 29.8359C66.0972 30.0784 66.3544 30.5237 66.3544 31.0072V39.1322C66.3544 39.6184 66.0944 40.0666 65.6719 40.3075L8.79692 72.8075C8.58821 72.9268 8.35665 72.9863 8.12508 72.9863ZM63.646 33.3391L11.5051 63.124C10.2551 63.8472 9.4779 65.1972 9.47916 66.6462V69.2978L63.6457 38.3456V33.3391H63.646Z" fill="#1F4B43"/>
<path d="M65.0001 113.611H16.2501C15.5026 113.611 14.896 113.005 14.896 112.257V66.9875C14.896 66.5012 15.156 66.0531 15.5785 65.8121L64.3285 37.9569C64.7469 37.7172 65.2601 37.7172 65.68 37.9609C66.0972 38.2034 66.3544 38.6487 66.3544 39.1322V112.257C66.3542 113.005 65.7476 113.611 65.0001 113.611ZM17.6042 110.903H63.6457V41.4653L17.6042 67.7728V110.903Z" fill="#1F4B43"/>
<path d="M8.12508 72.9863C7.89073 72.9863 7.6551 72.9253 7.44538 72.8035C7.02821 72.561 6.771 72.1141 6.771 71.6322V66.6488C6.76821 64.2356 8.06567 61.985 10.1563 60.7772L64.3285 29.8319C64.7482 29.5909 65.2616 29.5934 65.68 29.8359C66.0972 30.0784 66.3544 30.5237 66.3544 31.0072V39.1322C66.3544 39.6184 66.0944 40.0666 65.6719 40.3075L8.79692 72.8075C8.58821 72.9268 8.35665 72.9863 8.12508 72.9863ZM63.646 33.3391L11.5051 63.124C10.2551 63.8472 9.4779 65.1972 9.47916 66.6462V69.2978L63.6457 38.3456V33.3391H63.646Z" fill="#1F4B43"/>
<path d="M113.75 113.611H65.0001C64.2526 113.611 63.646 113.005 63.646 112.257V16.1112C63.646 15.3637 64.2526 14.7571 65.0001 14.7571C65.7476 14.7571 66.3542 15.3637 66.3542 16.1112V110.903H112.396V43.9665C112.396 43.219 113.002 42.6124 113.75 42.6124C114.497 42.6124 115.104 43.219 115.104 43.9665V112.257C115.104 113.005 114.498 113.611 113.75 113.611Z" fill="#1F4B43"/>
<g opacity="0.12">
<path d="M70.4165 121.736H39.2708C38.5233 121.736 37.9167 121.13 37.9167 120.382C37.9167 119.635 38.5233 119.028 39.2708 119.028H70.4168C71.1643 119.028 71.7708 119.635 71.7708 120.382C71.7708 121.13 71.164 121.736 70.4165 121.736Z" fill="#1F4B43"/>
</g>
<g opacity="0.12">
<path d="M108.333 121.736H78.5416C77.7941 121.736 77.1875 121.13 77.1875 120.382C77.1875 119.635 77.7941 119.028 78.5416 119.028H108.333C109.081 119.028 109.687 119.635 109.687 120.382C109.687 121.13 109.081 121.736 108.333 121.736Z" fill="#1F4B43"/>
</g>
<g opacity="0.12">
<path d="M31.1459 121.736H21.6666C20.9191 121.736 20.3125 121.13 20.3125 120.382C20.3125 119.635 20.9191 119.028 21.6666 119.028H31.1457C31.8932 119.028 32.4997 119.635 32.4997 120.382C32.4997 121.13 31.8934 121.736 31.1459 121.736Z" fill="#1F4B43"/>
</g>
<g opacity="0.06">
<path d="M102.917 127.153H63.6461C62.8986 127.153 62.292 126.546 62.292 125.799C62.292 125.051 62.8986 124.445 63.6461 124.445H102.917C103.664 124.445 104.271 125.051 104.271 125.799C104.271 126.546 103.664 127.153 102.917 127.153Z" fill="#1F4B43"/>
</g>
<g opacity="0.06">
<path d="M52.8124 127.153H27.0833C26.3358 127.153 25.7292 126.546 25.7292 125.799C25.7292 125.051 26.3358 124.445 27.0833 124.445H52.8124C53.5599 124.445 54.1665 125.051 54.1665 125.799C54.1665 126.546 53.5599 127.153 52.8124 127.153Z" fill="#1F4B43"/>
</g>
<path d="M121.875 49.9654C121.64 49.9654 121.404 49.9045 121.193 49.7813L56.1926 11.8648C55.7783 11.6223 55.5223 11.1795 55.5211 10.7001C55.5061 7.37697 58.1982 4.66195 61.5214 4.64697C61.5295 4.64697 61.5376 4.64697 61.5457 4.64697C62.6089 4.64697 63.6529 4.92855 64.571 5.46074C64.571 5.46074 64.5723 5.46201 64.5738 5.46201L119.851 37.7454C121.931 38.9467 123.228 41.1904 123.231 43.5982V48.6101C123.231 49.0948 122.972 49.5432 122.551 49.7841C122.341 49.9045 122.108 49.9654 121.875 49.9654ZM58.3051 9.96047L120.521 46.2521V43.5992C120.52 42.1558 119.741 40.8083 118.49 40.0864L63.2073 7.80074C62.7036 7.50951 62.1295 7.35514 61.5457 7.35514C61.5417 7.35514 61.5376 7.35514 61.5323 7.35514C60.6467 7.3592 59.8138 7.7073 59.191 8.33699C58.7411 8.79047 58.4379 9.35109 58.3051 9.96047Z" fill="#1F4B43"/>
<g opacity="0.12">
<path d="M113.75 43.9652V50.1402L65 21.7027V16.1099L113.75 43.9652Z" fill="#1F4B43"/>
<path d="M113.75 51.4956C113.514 51.4956 113.279 51.4346 113.068 51.3115L64.3176 22.874C63.9019 22.6302 63.646 22.1846 63.646 21.704V16.1112C63.646 15.629 63.9032 15.1822 64.3204 14.9399C64.7401 14.6974 65.2535 14.6962 65.6719 14.9359L114.422 42.7912C114.844 43.0308 115.104 43.4805 115.104 43.9652V50.1402C115.104 50.6249 114.846 51.0733 114.425 51.3143C114.216 51.4346 113.983 51.4956 113.75 51.4956ZM66.3542 20.9253L112.396 47.7825V44.7518L66.3542 18.4446V20.9253Z" fill="#1F4B43"/>
</g>
<g opacity="0.12">
<path d="M16.25 66.9857V73.2285L59.5834 48.4744V112.256H65V39.1306L16.25 66.9857Z" fill="#1F4B43"/>
<path d="M65.0001 113.611H59.5835C58.836 113.611 58.2294 113.004 58.2294 112.257V50.8076L16.9217 74.4054C16.5004 74.6451 15.9873 74.6423 15.5701 74.4014C15.153 74.1576 14.8958 73.712 14.8958 73.2286V66.9858C14.8958 66.4995 15.1558 66.0514 15.5783 65.8104L64.3283 37.9551C64.7467 37.7155 65.2598 37.7155 65.6798 37.9592C66.097 38.203 66.3542 38.6486 66.3542 39.132V112.257C66.3542 113.004 65.7476 113.611 65.0001 113.611ZM60.9376 110.903H63.646V41.4651L17.6042 67.7726V70.8967L58.9117 47.3004C59.3301 47.0607 59.8448 47.0607 60.2632 47.3045C60.6804 47.547 60.9376 47.9923 60.9376 48.4757V110.903Z" fill="#1F4B43"/>
</g>
<g opacity="0.06">
<path d="M81.2501 108.194H16.2501C15.5026 108.194 14.896 107.588 14.896 106.84C14.896 106.093 15.5026 105.486 16.2501 105.486H81.2501C81.9976 105.486 82.6042 106.093 82.6042 106.84C82.6042 107.588 81.9976 108.194 81.2501 108.194Z" fill="#1F4B43"/>
<path d="M113.75 108.194H97.5001C96.7526 108.194 96.146 107.588 96.146 106.84C96.146 106.093 96.7526 105.486 97.5001 105.486H113.75C114.498 105.486 115.104 106.093 115.104 106.84C115.104 107.588 114.498 108.194 113.75 108.194Z" fill="#1F4B43"/>
</g>
</svg>
